{"glyphs":{"0":{"ha":828,"x_min":47,"x_max":750,"o":"m 750 503 q 742 668 750 586 q 705 816 733 750 q 620 924 676 882 q 467 969 564 967 l 467 804 q 499 794 483 800 q 529 776 515 788 q 563 720 554 756 q 570 643 571 685 q 565 560 569 601 q 561 489 561 519 q 564 398 561 454 q 561 288 567 342 q 534 194 556 233 q 465 154 513 154 l 465 -14 q 630 49 572 1 q 715 167 688 97 q 746 324 742 238 q 750 503 750 411 m 347 -12 l 347 153 q 314 162 331 156 q 283 179 297 168 q 243 242 254 203 q 230 328 232 282 q 231 419 228 374 q 235 501 235 465 q 234 591 235 543 q 242 682 233 639 q 274 758 250 725 q 347 803 297 790 l 347 967 q 194 921 253 964 q 103 811 136 878 q 59 663 71 744 q 47 501 47 581 q 50 384 47 443 q 63 269 53 325 q 91 163 72 213 q 143 76 110 114 q 226 15 176 39 q 347 -12 276 -8 z "},"1":{"ha":828,"x_min":189,"x_max":608,"o":"m 608 0 l 608 950 l 436 950 q 427 909 433 929 q 410 869 421 889 l 410 868 l 410 0 l 608 0 m 303 644 l 303 828 q 281 810 288 817 q 270 797 275 803 q 257 790 265 792 q 231 788 249 788 l 208 788 q 199 788 204 788 q 189 789 194 788 l 189 644 l 303 644 z "},"2":{"ha":828,"x_min":72,"x_max":725,"o":"m 707 678 q 646 883 707 813 q 456 963 585 953 l 456 783 q 492 768 479 779 q 510 741 504 757 q 516 705 515 725 q 517 661 517 685 q 477 546 517 600 q 381 444 438 492 q 262 354 324 396 q 156 276 200 313 l 418 278 q 526 362 474 324 q 619 444 579 400 q 683 543 658 488 q 707 678 707 599 m 347 785 l 347 964 q 221 929 271 954 q 140 863 171 904 q 95 763 110 821 q 75 631 81 706 q 74 618 74 624 q 72 606 74 613 l 267 599 q 265 663 267 632 q 267 719 263 694 q 290 761 272 744 q 347 785 308 778 m 725 0 l 725 172 l 72 172 l 72 0 l 725 0 z "},"3":{"ha":828,"x_min":61,"x_max":735,"o":"m 342 806 l 342 965 q 218 935 268 957 q 138 877 168 914 q 94 785 107 840 q 81 654 81 731 l 82 649 l 265 639 q 265 698 265 671 q 269 747 264 725 q 291 783 275 768 q 342 806 307 797 m 735 292 q 724 362 735 324 q 692 433 713 400 q 642 489 672 467 q 575 511 613 511 q 667 592 638 547 q 696 711 696 638 q 678 821 696 775 q 629 897 661 867 q 551 942 597 926 q 447 964 506 958 l 447 804 q 500 767 492 794 q 508 693 508 740 q 492 641 508 663 q 449 606 475 619 q 393 585 424 592 q 336 579 363 579 l 329 579 q 329 579 329 579 q 322 582 329 581 l 322 419 q 385 425 350 425 q 440 417 413 425 q 488 393 467 408 q 522 355 508 378 q 535 301 535 332 q 533 247 535 272 q 521 200 531 221 q 494 166 511 179 q 446 149 476 153 l 447 -14 q 657 72 579 -7 q 735 292 735 151 m 344 -15 l 344 149 q 283 169 303 153 q 255 213 263 186 q 247 271 247 239 q 247 339 247 303 l 61 331 q 76 193 61 256 q 126 85 92 131 q 213 13 160 39 q 344 -15 267 -14 z "},"4":{"ha":828,"x_min":46,"x_max":750,"o":"m 750 206 l 750 365 l 624 365 l 624 947 l 435 947 l 435 0 l 624 0 l 624 203 l 750 206 m 331 204 l 331 365 l 214 365 l 331 572 l 331 840 l 46 401 l 46 204 l 331 204 z "},"5":{"ha":828,"x_min":51,"x_max":746,"o":"m 717 949 l 178 949 l 147 774 l 699 774 l 717 949 m 746 344 q 731 462 746 406 q 684 560 715 518 q 606 628 653 603 q 494 654 558 654 q 475 654 485 654 q 457 653 467 654 l 457 492 q 507 470 488 483 q 536 438 526 457 q 549 393 546 419 q 553 333 553 367 q 550 269 553 297 q 538 220 547 242 q 508 183 528 199 q 457 154 489 167 l 457 -11 q 678 99 610 13 q 746 344 746 185 m 350 647 q 328 641 336 644 q 313 632 319 638 q 301 620 307 626 q 282 607 294 614 l 310 682 l 142 682 l 89 425 l 268 425 q 299 473 282 460 q 349 493 315 486 l 350 647 m 351 -12 l 351 150 q 297 163 317 153 q 267 192 278 174 q 252 235 257 210 q 243 293 247 260 l 244 293 l 243 294 l 243 293 l 51 283 q 78 167 57 221 q 134 73 99 113 q 219 10 169 33 q 333 -12 268 -12 l 351 -12 z "},"6":{"ha":828,"x_min":57,"x_max":740,"o":"m 724 713 q 650 895 708 826 q 476 964 592 964 l 460 964 l 460 808 q 502 798 488 804 q 524 781 517 792 q 535 751 532 769 q 542 704 538 733 l 724 713 m 740 339 q 719 462 740 404 q 660 562 699 519 q 568 629 622 604 q 446 654 514 654 q 331 630 379 654 q 238 557 282 606 q 244 635 242 596 q 257 709 247 675 q 289 768 267 743 q 356 804 311 793 l 356 961 q 198 901 257 947 q 108 789 139 856 q 67 640 76 722 q 57 469 57 557 q 62 315 57 393 q 91 169 67 236 q 165 55 115 103 q 303 -7 214 7 q 327 -10 314 -10 q 354 -12 340 -11 l 354 151 q 303 172 322 157 q 273 208 283 186 q 258 256 263 229 q 254 315 254 283 q 292 440 254 390 q 411 492 331 490 q 476 478 449 492 q 523 442 504 465 q 551 389 542 419 q 560 324 560 358 q 556 263 560 292 q 542 212 553 235 q 513 173 532 189 q 461 151 493 157 l 460 -14 q 676 95 611 4 q 740 339 740 186 z "},"7":{"ha":828,"x_min":85,"x_max":713,"o":"m 713 771 l 713 946 l 85 946 l 85 771 l 713 771 m 676 667 l 478 665 q 414 578 444 626 q 325 431 361 496 q 265 303 289 367 q 225 169 240 240 q 201 1 210 97 l 414 0 q 480 358 414 188 q 676 667 546 528 z "},"8":{"ha":828,"x_min":54,"x_max":743,"o":"m 742 292 q 712 419 743 371 q 615 511 681 468 q 660 542 640 521 q 692 590 679 563 q 712 646 706 617 q 718 700 718 675 q 695 816 718 768 q 633 895 672 864 q 540 943 593 926 q 426 965 488 960 l 426 808 q 505 776 475 800 q 535 694 535 753 q 524 637 535 661 q 492 598 513 613 q 445 576 472 583 q 388 569 418 569 q 299 601 335 569 q 263 689 263 633 q 281 770 263 742 q 346 808 299 799 l 346 965 q 241 943 289 961 q 158 892 193 925 q 103 813 124 860 q 83 703 83 765 l 83 701 q 107 591 83 638 q 183 508 131 544 q 127 465 151 486 q 87 417 103 443 q 63 361 71 392 q 54 289 54 331 q 131 65 54 142 q 347 -14 208 -11 l 347 146 q 236 283 236 156 q 281 393 236 354 q 394 432 325 432 q 514 396 468 432 q 560 282 560 360 q 521 188 560 222 q 428 146 482 153 l 428 -15 q 553 12 496 -8 q 653 69 611 32 q 718 160 694 106 q 742 292 742 215 z "},"9":{"ha":828,"x_min":57,"x_max":740,"o":"m 740 490 q 728 647 740 571 q 684 787 717 724 q 594 895 651 850 q 444 958 536 940 l 442 958 l 442 960 q 446 961 444 961 q 442 963 447 961 l 442 960 q 442 958 440 960 l 442 799 q 497 776 476 792 q 528 739 518 761 q 540 688 538 717 q 543 624 543 658 q 499 506 543 553 q 383 458 456 458 q 323 471 350 458 q 277 506 296 483 q 248 556 258 528 q 238 618 238 585 q 240 685 238 657 q 251 735 242 714 q 279 771 260 756 q 335 800 299 786 l 335 963 q 201 932 254 960 q 115 856 147 904 q 70 742 83 807 q 57 603 57 678 q 78 481 57 536 q 137 384 99 425 q 229 320 175 343 q 351 297 283 297 q 558 393 479 297 q 552 319 556 360 q 538 240 549 278 q 504 176 526 203 q 440 147 482 150 l 440 -11 q 599 46 540 -1 q 690 163 658 93 q 731 319 721 233 q 740 490 740 404 m 335 -14 l 335 143 q 294 151 310 144 q 271 170 279 158 q 259 201 263 182 q 254 247 256 219 l 72 235 q 106 122 89 168 q 151 48 122 76 q 222 5 179 19 q 335 -14 265 -10 z "},"\u0007":{"ha":1389,"x_min":0,"x_max":0,"o":""},"\u0005":{"ha":1060,"x_min":60,"x_max":971,"o":"m 971 429 q 935 606 971 522 q 838 751 899 689 q 693 849 776 813 q 517 885 610 885 q 339 849 422 885 q 193 751 256 813 q 95 606 131 689 q 60 429 60 522 q 96 252 60 335 q 194 108 132 169 q 339 10 256 46 q 517 -26 422 -26 q 692 10 610 -26 q 837 108 775 46 q 935 252 899 169 q 971 429 971 335 m 872 582 l 860 572 l 850 560 l 839 572 l 828 582 l 839 593 l 850 604 l 860 593 l 872 582 m 919 429 q 888 273 919 346 q 801 145 856 200 q 673 58 746 90 q 517 26 600 26 q 360 58 433 26 q 231 144 286 90 q 144 272 176 199 q 113 429 113 346 q 144 585 113 513 q 230 713 175 658 q 358 800 285 768 q 515 832 432 832 l 515 833 q 592 826 556 833 q 665 804 629 818 l 568 804 l 568 347 q 569 319 568 332 q 569 297 571 307 q 560 281 567 288 q 538 274 553 275 l 538 151 l 563 151 q 578 154 569 151 q 683 216 653 172 q 713 340 713 260 l 713 781 q 843 665 789 739 l 757 665 l 757 544 l 897 544 l 897 558 q 914 494 908 526 q 919 429 919 463 m 501 543 l 501 665 l 369 665 l 369 543 l 501 543 m 483 582 l 471 572 l 461 560 l 450 572 l 439 582 l 450 593 l 461 604 l 471 593 l 483 582 m 468 150 l 468 274 q 428 300 432 281 q 425 356 424 319 q 425 385 425 371 q 426 414 425 399 l 286 414 l 286 364 q 295 274 286 313 q 325 208 304 235 q 381 166 346 181 q 468 150 415 151 z "},"\u0006":{"ha":1060,"x_min":60,"x_max":971,"o":"m 971 429 q 935 606 971 522 q 838 751 899 689 q 693 849 776 813 q 517 885 610 885 q 339 849 422 885 q 193 751 256 813 q 95 606 131 689 q 60 429 60 522 q 96 252 60 335 q 194 108 132 169 q 339 10 256 46 q 517 -26 422 -26 q 692 10 610 -26 q 837 108 775 46 q 935 252 899 169 q 971 429 971 335 m 733 651 l 721 642 l 711 629 l 700 642 l 689 651 l 700 663 l 711 674 l 721 663 l 733 651 m 344 651 l 332 642 l 322 629 l 311 642 l 300 651 l 311 663 l 322 674 l 332 663 l 344 651 m 919 429 q 888 273 919 346 q 801 145 856 200 q 673 58 746 90 q 517 26 600 26 q 360 58 433 26 q 231 144 286 90 q 144 272 176 199 q 113 429 113 346 q 148 595 113 518 q 244 728 183 672 l 244 621 l 376 621 l 376 742 l 261 742 q 377 808 313 785 q 515 832 442 832 l 515 833 q 653 809 588 833 q 771 742 718 785 l 632 742 l 632 621 l 772 621 l 772 739 q 880 603 840 683 q 919 429 919 522 m 582 99 l 582 742 l 436 742 l 436 99 l 582 99 z "},"\b":{"ha":1060,"x_min":60,"x_max":971,"o":"m 971 429 q 935 606 971 522 q 838 751 899 689 q 693 849 776 813 q 517 885 610 885 q 339 849 422 885 q 193 751 256 813 q 95 606 131 689 q 60 429 60 522 q 96 252 60 335 q 194 108 132 169 q 339 10 256 46 q 517 -26 422 -26 q 692 10 610 -26 q 837 108 775 46 q 935 252 899 169 q 971 429 971 335 m 919 429 q 888 273 919 346 q 801 145 856 200 q 673 58 746 90 q 517 26 600 26 q 360 58 433 26 q 231 144 286 90 q 144 272 176 199 q 113 429 113 346 q 138 571 113 504 q 209 690 164 638 q 315 778 254 743 q 449 826 376 814 l 449 101 l 583 101 l 583 828 q 715 779 654 815 q 822 690 776 743 q 894 571 868 638 q 919 429 919 504 m 746 539 l 746 653 l 607 653 l 607 539 l 746 539 m 735 572 l 725 563 l 715 553 l 706 563 l 696 572 l 706 581 l 715 592 l 725 581 l 735 572 m 425 539 l 425 653 l 285 653 l 285 539 l 425 539 m 390 572 l 379 563 l 371 553 l 361 563 l 351 572 l 361 581 l 371 592 l 379 581 l 390 572 z "},"\n":{"ha":1060,"x_min":60,"x_max":971,"o":"m 971 429 q 935 606 971 522 q 838 751 899 689 q 693 849 776 813 q 517 885 610 885 q 339 849 422 885 q 193 751 256 813 q 95 606 131 689 q 60 429 60 522 q 96 252 60 335 q 194 108 132 169 q 339 10 256 46 q 517 -26 422 -26 q 692 10 610 -26 q 837 108 775 46 q 935 252 899 169 q 971 429 971 335 m 919 429 q 918 396 919 413 q 914 364 917 379 q 906 427 913 394 q 885 488 900 460 q 847 533 871 515 q 786 551 822 551 l 775 551 l 775 472 q 803 455 793 469 q 819 422 814 440 q 824 383 824 403 q 825 349 825 363 q 824 313 825 332 q 819 275 824 293 q 803 242 814 257 q 775 221 793 228 l 775 139 q 788 142 782 140 q 801 146 794 143 q 673 58 746 90 q 517 26 600 26 q 371 54 442 26 l 608 54 l 608 100 l 368 100 l 368 54 q 265 114 311 76 q 184 201 218 151 q 131 308 150 250 q 113 429 113 365 q 127 538 113 486 q 168 635 142 589 q 164 601 165 618 q 163 568 163 583 q 169 497 163 531 q 190 437 175 463 q 233 393 206 411 q 301 368 260 375 l 303 449 q 294 451 300 450 q 286 454 289 451 q 267 479 274 464 q 256 513 260 494 q 252 548 253 531 q 251 579 251 565 q 253 613 251 593 q 259 651 254 632 q 274 683 264 669 q 301 701 283 697 l 303 701 l 303 771 q 402 816 349 800 q 515 832 456 832 l 515 833 q 672 801 599 833 q 800 715 744 769 q 888 586 856 660 q 919 429 919 513 m 800 294 q 794 311 800 304 q 778 318 788 318 q 761 311 768 318 q 754 294 754 304 q 761 278 754 285 q 778 271 768 271 q 794 278 788 271 q 801 294 801 285 l 800 294 m 753 139 l 751 218 q 725 240 735 225 q 710 272 715 254 q 704 308 706 289 q 703 343 703 326 q 703 379 703 360 q 709 416 704 399 q 724 448 714 433 q 751 471 733 463 l 751 551 q 683 528 710 549 q 640 479 656 508 q 619 414 625 450 q 614 343 614 378 q 619 270 614 304 q 640 209 625 236 q 683 164 656 182 q 753 139 710 146 m 706 772 l 626 772 l 369 146 l 449 146 l 706 772 m 463 593 q 456 660 463 628 q 433 719 449 693 q 391 763 418 746 q 325 782 364 779 l 325 701 q 353 681 343 696 q 367 649 363 667 q 373 612 372 631 q 374 578 374 593 q 372 544 374 565 q 365 503 371 524 q 350 467 360 483 q 324 449 340 451 l 325 449 l 325 368 q 397 398 369 376 q 440 449 425 419 q 458 516 454 479 q 463 593 463 553 m 343 518 q 337 535 343 528 q 321 542 331 542 q 304 535 311 542 q 297 518 297 528 q 304 501 297 508 q 321 494 311 494 q 338 501 331 494 q 344 518 344 508 l 343 518 z "},"\u000b":{"ha":1060,"x_min":60,"x_max":971,"o":"m 971 429 q 935 606 971 522 q 838 751 899 689 q 693 849 776 813 q 517 885 610 885 q 339 849 422 885 q 193 751 256 813 q 95 606 131 689 q 60 429 60 522 q 96 252 60 335 q 194 108 132 169 q 339 10 256 46 q 517 -26 422 -26 q 692 10 610 -26 q 837 108 775 46 q 935 252 899 169 q 971 429 971 335 m 919 429 q 888 273 919 346 q 801 145 856 200 q 673 58 746 90 q 517 26 600 26 q 360 58 433 26 q 231 144 286 90 q 144 272 176 199 q 113 429 113 346 q 144 585 113 513 q 230 713 175 658 q 358 800 285 768 q 515 832 432 832 l 515 833 q 672 801 599 833 q 800 715 744 769 q 888 586 856 660 q 919 429 919 513 m 785 269 q 739 274 761 267 q 699 297 717 282 q 743 383 721 336 q 767 475 765 429 l 649 475 q 640 424 646 449 q 622 376 633 400 l 546 481 q 628 544 594 508 q 661 642 661 581 q 629 742 661 707 q 539 788 597 776 l 538 682 q 551 665 551 676 q 550 640 550 654 q 531 595 550 614 q 488 569 511 576 q 469 603 476 586 q 461 640 461 621 q 461 667 461 657 q 478 682 461 678 l 478 789 q 381 742 415 782 q 347 638 347 703 l 347 636 q 358 578 347 604 q 382 524 368 551 q 288 451 326 492 q 250 343 250 411 q 299 206 250 256 q 428 149 347 157 l 428 261 q 375 343 375 279 q 394 397 375 372 q 439 433 413 422 l 547 286 q 518 269 526 276 q 488 260 510 263 l 488 149 q 558 169 531 156 q 619 208 585 182 q 678 171 651 185 q 744 157 704 157 q 764 157 754 157 q 785 158 774 157 l 785 269 z "},"\f":{"ha":328,"x_min":-75,"x_max":374,"o":"m 374 1036 l 217 1036 l 147 921 l 79 1038 l -75 1038 l 46 828 l 242 828 l 374 1036 z "},"\r":{"ha":419,"x_min":89,"x_max":300,"o":"m 300 0 l 300 746 l 89 746 l 89 0 l 300 0 z "},"\u0019":{"ha":1060,"x_min":60,"x_max":971,"o":"m 971 429 q 935 606 971 522 q 838 751 899 689 q 693 849 776 813 q 517 885 610 885 q 339 849 422 885 q 193 751 256 813 q 95 606 131 689 q 60 429 60 522 q 96 252 60 335 q 194 108 132 169 q 339 10 256 46 q 517 -26 422 -26 q 692 10 610 -26 q 837 108 775 46 q 935 252 899 169 q 971 429 971 335 m 919 429 q 888 273 919 346 q 801 145 856 200 q 673 58 746 90 q 517 26 600 26 q 360 58 433 26 q 231 144 286 90 q 144 272 176 199 q 113 429 113 346 q 133 560 113 497 l 133 488 l 265 488 l 265 610 l 154 610 q 228 712 183 667 q 329 788 272 757 l 329 165 l 475 165 l 475 808 l 378 808 q 515 832 444 832 l 515 833 q 672 801 599 833 q 800 715 744 769 q 888 586 856 660 q 919 429 919 513 m 206 526 l 193 517 l 183 504 l 172 517 l 161 526 l 172 538 l 183 549 l 193 538 l 206 526 m 661 489 l 661 610 l 521 610 l 521 489 l 661 489 m 594 526 l 582 517 l 572 504 l 561 517 l 550 526 l 561 538 l 572 549 l 582 538 l 594 526 m 779 165 l 779 286 l 543 286 l 543 165 l 779 165 z "},"\u001a":{"ha":1060,"x_min":60,"x_max":971,"o":"m 971 429 q 921 637 971 542 q 788 794 871 732 q 661 861 729 838 q 517 885 593 885 q 339 849 422 885 q 193 751 256 813 q 95 606 131 689 q 60 429 60 522 q 96 252 60 335 q 194 108 132 169 q 339 10 256 46 q 517 -26 422 -26 q 692 10 610 -26 q 837 108 775 46 q 935 252 899 169 q 971 429 971 335 m 919 429 q 890 281 919 350 q 813 157 861 211 l 556 501 l 756 753 q 875 613 831 697 q 919 429 919 529 m 807 151 q 677 60 751 93 q 517 26 603 26 q 360 58 433 26 q 231 144 286 90 q 144 272 176 199 q 113 429 113 346 q 148 595 113 518 q 246 728 183 672 l 246 151 l 389 151 l 389 793 l 343 793 q 515 832 424 832 l 515 833 q 688 794 606 833 l 615 794 l 460 576 l 460 417 l 638 151 l 807 151 z "},"\u001b":{"ha":1060,"x_min":60,"x_max":971,"o":"m 971 429 q 935 606 971 522 q 838 751 899 689 q 693 849 776 813 q 517 885 610 885 q 339 849 422 885 q 193 751 256 813 q 95 606 131 689 q 60 429 60 522 q 96 252 60 335 q 194 108 132 169 q 339 10 256 46 q 517 -26 422 -26 q 692 10 610 -26 q 837 108 775 46 q 935 252 899 169 q 971 429 971 335 m 919 429 q 888 273 919 346 q 801 145 856 200 q 673 58 746 90 q 517 26 600 26 q 360 58 433 26 q 231 144 286 90 q 144 272 176 199 q 113 429 113 346 q 172 641 113 546 q 329 788 232 736 l 329 165 l 475 165 l 475 808 l 378 808 q 515 832 444 832 l 515 833 q 672 801 599 833 q 800 715 744 769 q 888 586 856 660 q 919 429 919 513 m 779 165 l 779 286 l 543 286 l 543 165 l 779 165 z "},"\u001e":{"ha":1060,"x_min":161,"x_max":594,"o":"m 594 540 l 582 551 l 572 563 l 561 551 l 550 540 l 561 531 l 572 518 l 582 531 l 594 540 m 206 540 l 193 551 l 183 563 l 172 551 l 161 540 l 172 531 l 183 518 l 193 531 l 206 540 z "},"\u001f":{"ha":826,"x_min":-3,"x_max":797,"o":"m 797 792 l 797 974 l 585 974 l 585 792 l 797 792 m 196 790 l 196 974 l -3 974 l -3 790 l 196 790 z "}," ":{"ha":385,"x_min":0,"x_max":0,"o":""},"!":{"ha":458,"x_min":107,"x_max":321,"o":"m 321 642 l 321 972 l 108 972 l 108 644 q 120 460 108 551 q 140 276 132 368 l 282 276 q 307 459 293 368 q 321 642 321 550 m 311 0 l 311 203 l 107 203 l 107 0 l 311 0 z "},"\"":{"ha":653,"x_min":64,"x_max":557,"o":"m 557 857 l 557 974 l 347 975 l 347 767 l 453 767 q 420 674 453 714 q 343 613 388 635 l 343 536 q 452 581 410 553 q 517 650 494 610 q 549 742 540 690 q 557 857 557 793 m 279 811 l 279 974 l 71 974 l 71 765 l 179 765 q 144 673 179 714 q 64 614 110 632 l 64 613 l 64 533 q 160 578 119 556 q 228 631 201 600 q 267 704 254 661 q 279 811 279 747 z "},"#":{"ha":813,"x_min":56,"x_max":726,"o":"m 726 643 l 726 735 l 613 735 l 653 1018 l 557 1018 l 518 735 l 347 735 l 388 1018 l 292 1018 l 251 735 l 90 735 l 90 642 l 239 642 l 203 376 l 56 376 l 56 283 l 189 283 l 149 0 l 243 0 l 283 283 l 454 283 l 414 0 l 510 0 l 549 283 l 689 283 l 689 376 l 561 376 l 599 643 l 726 643 m 504 643 l 467 376 l 297 376 l 335 643 l 504 643 z "},"$":{"ha":822,"x_min":22,"x_max":771,"o":"m 771 676 q 751 783 767 738 q 708 860 736 828 q 638 916 681 893 q 538 954 596 939 l 538 776 q 576 733 561 760 q 592 678 592 707 l 592 665 l 771 676 m 768 275 q 744 401 768 354 q 681 477 721 447 q 587 526 640 507 q 472 568 533 544 l 472 1094 l 364 1094 l 364 600 q 293 635 324 611 q 263 704 263 658 q 267 758 263 736 q 301 786 272 779 l 300 786 l 300 957 q 204 932 246 954 q 133 873 163 910 q 90 788 104 836 q 75 685 75 739 q 99 569 75 615 q 162 492 122 524 q 253 442 201 461 q 364 406 306 422 l 363 -144 l 472 -144 l 472 369 q 507 356 489 364 q 540 335 525 347 q 564 306 554 322 q 574 271 574 290 q 570 212 574 236 q 536 174 567 188 l 536 -8 q 710 84 651 19 q 768 275 768 149 m 299 -11 l 299 169 q 240 210 265 181 q 214 278 214 240 q 215 289 214 283 q 217 301 215 294 l 215 300 l 22 296 q 53 176 35 226 q 101 88 71 125 q 180 28 132 51 q 299 -11 228 4 z "},"%":{"ha":1219,"x_min":25,"x_max":1163,"o":"m 1163 308 q 1154 408 1163 354 q 1124 507 1146 461 q 1064 583 1101 553 q 968 613 1026 613 l 953 613 l 953 493 q 994 467 979 489 q 1017 416 1010 444 q 1026 357 1025 388 q 1028 306 1028 326 q 1026 251 1028 281 q 1018 194 1025 222 q 996 144 1011 167 q 953 111 981 121 l 953 -12 q 1058 30 1017 0 q 1122 102 1099 60 q 1153 197 1144 144 q 1163 308 1163 250 m 918 -14 l 917 107 q 876 140 890 118 q 853 188 861 161 q 844 244 846 215 q 843 297 843 272 q 844 351 843 322 q 853 408 846 381 q 874 456 860 435 q 917 490 889 478 l 917 613 q 813 577 854 607 q 749 502 772 547 q 716 403 725 457 q 707 296 707 349 q 716 185 707 238 q 749 92 725 133 q 813 24 772 51 q 918 -14 853 -4 m 847 947 l 728 947 l 338 -1 l 457 -1 l 847 947 m 479 675 q 469 776 479 726 q 434 867 458 826 q 369 933 410 907 q 269 963 329 958 l 271 839 q 312 809 297 831 q 333 760 326 788 q 342 704 340 733 q 343 653 343 675 q 341 601 343 633 q 331 539 339 569 q 308 485 322 508 q 268 457 293 461 l 269 457 l 269 335 q 379 379 338 347 q 443 457 421 411 q 472 559 465 503 q 479 675 479 615 m 236 457 q 223 460 231 458 q 211 465 215 463 q 181 503 192 479 q 165 553 171 526 q 159 606 160 579 q 158 654 158 633 q 160 705 158 675 q 169 763 163 735 q 192 812 176 790 q 235 839 207 833 l 236 840 l 236 963 q 133 928 174 960 q 67 849 92 896 q 34 745 43 801 q 25 638 25 689 q 34 530 25 581 q 67 440 43 479 q 131 372 90 400 q 235 335 172 344 l 236 457 z "},"&":{"ha":899,"x_min":29,"x_max":840,"o":"m 840 167 q 710 208 767 160 q 744 270 726 238 q 776 338 761 303 q 802 408 792 372 q 813 478 813 443 l 633 478 q 620 401 629 439 q 594 328 611 364 l 478 488 q 547 532 515 508 q 601 584 578 556 q 639 649 625 613 q 653 731 653 685 q 605 883 653 829 q 467 951 557 936 l 465 792 q 485 767 486 785 q 483 728 483 750 q 454 660 483 688 q 389 622 425 633 q 362 672 374 646 q 350 728 350 699 q 349 751 350 740 q 350 769 349 761 q 357 783 351 778 q 375 792 363 789 l 375 953 q 228 883 279 943 q 176 724 176 822 l 176 722 q 193 633 176 674 q 229 551 210 593 q 151 501 188 528 q 87 442 114 475 q 44 369 60 410 q 29 278 29 329 q 103 72 29 147 q 300 -15 176 -4 l 299 154 q 237 199 256 168 q 218 278 218 229 q 247 360 218 322 q 315 415 275 397 l 479 193 q 454 178 464 185 q 436 167 444 172 q 417 158 428 161 q 390 151 407 154 l 390 -15 q 448 -4 422 -11 q 497 14 474 3 q 542 40 519 25 q 590 75 564 54 q 635 42 614 57 q 677 17 656 28 q 723 1 699 7 q 778 -4 747 -4 q 808 -4 793 -4 q 839 -1 824 -4 l 840 167 z "},"'":{"ha":390,"x_min":71,"x_max":289,"o":"m 289 983 l 83 985 l 83 779 l 185 779 q 175 729 183 754 q 151 682 167 704 q 116 644 136 660 q 71 619 96 628 l 72 544 q 185 595 143 565 q 249 666 226 625 q 280 760 272 707 q 288 882 288 814 q 288 933 288 908 q 289 983 289 958 z "},"(":{"ha":469,"x_min":22,"x_max":418,"o":"m 418 -242 q 238 338 238 18 q 279 667 236 506 q 414 972 322 829 l 240 972 q 151 831 192 901 q 82 688 111 761 q 38 535 53 614 q 22 368 22 457 q 77 47 22 194 q 232 -242 132 -100 l 418 -242 z "},")":{"ha":493,"x_min":35,"x_max":429,"o":"m 429 371 q 415 538 429 460 q 375 690 401 617 q 309 832 349 763 q 219 974 269 901 l 219 975 l 35 975 q 174 692 132 835 q 217 379 217 549 q 171 58 217 215 q 40 -240 125 -100 l 211 -240 q 371 47 313 -108 q 429 371 429 203 z "},"*":{"ha":582,"x_min":35,"x_max":518,"o":"m 518 758 l 481 867 l 335 817 l 335 975 l 219 975 l 219 813 l 71 867 l 35 757 l 181 706 l 88 582 l 181 513 l 274 643 l 369 513 l 463 583 l 371 707 l 518 758 z "},"+":{"ha":908,"x_min":38,"x_max":840,"o":"m 840 331 l 840 471 l 511 471 l 511 803 l 369 803 l 369 471 l 38 471 l 38 331 l 369 331 l 369 0 l 511 0 l 511 331 l 840 331 z "},",":{"ha":383,"x_min":65,"x_max":286,"o":"m 286 207 l 82 207 l 79 0 l 185 0 q 147 -95 175 -56 q 65 -158 118 -135 l 67 -158 l 67 -233 q 206 -158 160 -200 q 269 -64 251 -117 q 285 56 286 -11 q 286 207 285 124 z "},"-":{"ha":585,"x_min":75,"x_max":479,"o":"m 479 357 l 479 521 l 75 521 l 75 357 l 479 357 z "},".":{"ha":385,"x_min":47,"x_max":251,"o":"m 251 0 l 249 206 l 47 206 l 47 0 l 251 0 z "},"/":{"ha":650,"x_min":21,"x_max":597,"o":"m 597 975 l 424 975 l 21 0 l 194 0 l 597 975 z "},":":{"ha":451,"x_min":107,"x_max":314,"o":"m 314 478 l 314 679 l 107 679 l 107 478 l 314 478 m 313 0 l 313 204 l 107 204 l 107 0 l 313 0 z "},";":{"ha":453,"x_min":103,"x_max":319,"o":"m 319 476 l 319 678 l 113 678 l 113 476 l 319 476 m 317 201 l 113 201 l 113 0 l 215 0 q 185 -97 215 -57 q 104 -158 156 -137 l 103 -158 l 103 -231 q 192 -192 153 -214 q 259 -140 232 -171 q 301 -69 286 -110 q 315 29 315 -28 l 317 201 z "},"<":{"ha":849,"x_min":60,"x_max":758,"o":"m 758 -11 l 758 82 l 174 349 l 758 614 l 758 707 l 60 390 l 60 306 l 758 -11 z "},"=":{"ha":964,"x_min":8,"x_max":925,"o":"m 925 460 l 925 601 l 8 601 l 8 460 l 925 460 m 925 201 l 925 343 l 8 343 l 8 201 l 925 201 z "},">":{"ha":838,"x_min":54,"x_max":753,"o":"m 753 306 l 753 390 l 54 707 l 54 614 l 639 349 l 54 82 l 54 -11 l 753 306 z "},"?":{"ha":761,"x_min":15,"x_max":714,"o":"m 714 701 q 640 919 714 849 q 429 996 565 989 l 431 826 q 497 787 482 815 q 511 701 511 758 q 495 637 511 663 q 455 590 479 611 q 402 547 431 568 q 349 494 374 525 q 308 421 325 464 q 292 314 292 378 l 290 315 l 290 286 l 481 286 q 499 368 482 335 q 543 428 517 401 q 599 478 569 454 q 655 533 629 503 q 697 603 681 563 q 714 701 714 643 m 325 826 l 325 994 q 92 908 167 986 q 15 663 17 829 l 213 663 q 219 728 217 699 q 233 779 222 758 q 264 812 243 800 q 325 826 285 824 m 490 0 l 490 203 l 286 203 l 286 0 l 490 0 z "},"@":{"ha":1306,"x_min":167,"x_max":1161,"o":"m 1161 371 q 1122 547 1161 467 q 1015 683 1082 626 q 863 769 949 739 q 686 800 778 800 q 485 759 579 800 q 319 647 390 718 q 208 482 249 576 q 167 281 167 388 q 208 76 167 171 q 321 -90 250 -19 q 488 -201 392 -161 q 693 -242 583 -242 q 692 -226 693 -240 q 692 -197 692 -212 q 694 -169 693 -182 q 696 -156 694 -156 q 528 -122 606 -156 q 392 -31 450 -89 q 301 105 335 26 q 268 274 268 183 q 299 444 268 364 q 385 584 329 524 q 517 679 440 644 q 688 714 594 714 q 835 689 765 714 q 958 618 906 664 q 1040 506 1010 572 q 1071 358 1071 440 q 1058 269 1071 321 q 1019 172 1044 218 q 957 94 993 126 q 875 61 921 61 q 851 74 856 61 q 846 101 846 86 q 853 150 846 117 q 873 226 861 183 q 899 318 885 269 q 926 411 913 367 q 952 493 940 456 q 969 551 964 531 l 876 550 l 849 465 q 787 543 828 514 q 692 572 746 572 q 559 538 618 572 q 458 449 500 504 q 394 327 417 394 q 372 193 372 260 q 387 109 372 149 q 428 39 401 69 q 492 -10 456 8 q 575 -28 529 -28 q 666 -3 624 -28 q 740 57 708 22 l 743 58 q 769 -3 743 21 q 832 -28 794 -28 q 963 10 903 -28 q 1068 107 1024 49 q 1137 235 1113 165 q 1161 371 1161 306 m 804 344 q 789 258 804 306 q 747 169 774 211 q 682 99 719 128 q 599 71 644 71 q 514 110 543 71 q 485 203 485 150 q 499 292 485 244 q 541 379 514 339 q 607 446 568 419 q 693 472 646 472 l 692 471 q 737 460 717 471 q 772 431 757 449 q 796 390 788 413 q 804 344 804 367 z "},"A":{"ha":943,"x_min":-7,"x_max":919,"o":"m 919 0 l 578 972 l 328 972 l -7 0 l 240 0 l 422 621 q 440 690 433 656 q 454 758 447 724 q 497 569 465 661 q 556 385 528 478 l 447 383 l 394 208 l 611 208 l 675 0 l 919 0 z "},"B":{"ha":951,"x_min":63,"x_max":857,"o":"m 857 286 q 815 430 857 374 q 696 522 774 486 q 796 605 761 560 q 831 729 831 650 q 792 865 831 815 q 692 938 753 914 q 558 969 631 963 q 419 975 486 975 q 404 975 407 975 q 401 974 401 975 q 399 974 401 974 q 385 974 397 974 l 386 790 q 406 791 401 790 q 412 792 410 792 q 418 794 414 793 q 438 794 422 794 q 497 792 465 794 q 555 778 528 789 q 599 746 582 767 q 617 690 617 725 q 599 638 617 657 q 553 608 581 618 q 496 595 526 597 q 440 593 465 593 q 420 594 425 593 q 413 596 415 594 q 406 598 411 597 q 386 599 401 599 l 386 424 q 406 424 401 424 q 414 426 411 425 q 422 427 417 426 q 442 428 426 428 q 508 424 474 428 q 569 408 542 421 q 615 372 597 396 q 633 307 633 347 q 614 238 633 264 q 565 199 594 213 q 500 181 536 185 q 431 178 464 178 q 412 178 415 178 q 408 180 408 179 q 403 181 407 181 q 386 182 400 182 l 386 0 q 411 0 404 0 q 424 0 419 0 q 436 0 429 0 q 463 0 444 0 q 556 3 508 0 q 647 18 603 6 q 731 53 692 31 q 800 115 769 76 q 842 196 828 151 q 857 286 857 240 m 282 0 l 282 974 l 63 974 l 63 0 l 282 0 z "},"C":{"ha":992,"x_min":21,"x_max":940,"o":"m 925 675 q 800 908 893 838 q 551 988 707 979 l 551 808 q 653 765 621 801 q 704 658 686 728 l 925 675 m 940 324 l 710 339 q 665 214 700 258 q 551 161 631 169 l 553 161 l 553 -22 q 704 10 639 -11 q 816 70 769 31 q 893 171 863 110 q 940 324 924 232 m 463 -21 l 463 163 q 360 194 400 164 q 297 269 319 224 q 265 371 274 315 q 257 481 257 426 q 263 594 257 536 q 292 698 269 651 q 353 775 314 744 q 460 808 393 806 l 461 810 l 461 989 q 269 947 351 986 q 131 842 186 908 q 49 684 76 775 q 21 486 21 593 q 49 289 21 381 q 133 129 78 197 q 272 21 189 61 q 463 -21 354 -19 z "},"D":{"ha":979,"x_min":63,"x_max":886,"o":"m 886 490 q 865 653 886 576 q 801 792 843 731 q 693 897 758 853 q 540 960 628 940 q 513 967 521 964 q 499 971 506 969 q 485 973 493 972 q 457 974 476 974 l 386 974 l 385 974 l 385 790 q 401 790 399 790 q 404 789 404 789 q 407 788 404 789 q 424 786 410 788 q 536 758 492 782 q 606 696 581 735 q 642 604 632 657 q 653 490 653 551 q 651 356 653 414 q 632 258 650 297 q 572 199 614 218 q 447 179 529 179 q 416 180 432 179 q 385 181 400 181 l 385 0 q 548 8 479 1 q 670 41 617 14 q 765 123 724 68 q 847 276 807 178 q 877 382 868 328 q 886 490 886 436 m 279 0 l 279 972 l 63 972 l 63 0 l 279 0 z "},"E":{"ha":839,"x_min":44,"x_max":763,"o":"m 753 793 l 753 974 l 368 974 l 368 793 l 753 793 m 717 425 l 717 600 l 368 600 l 368 425 l 717 425 m 763 0 l 763 181 l 368 181 l 368 0 l 763 0 m 261 0 l 261 974 l 44 974 l 44 0 l 261 0 z "},"F":{"ha":804,"x_min":29,"x_max":743,"o":"m 743 792 l 743 974 l 367 974 l 367 792 l 743 792 m 682 408 l 682 581 l 367 581 l 367 408 l 682 408 m 247 0 l 247 974 l 29 974 l 29 0 l 247 0 z "},"G":{"ha":1022,"x_min":39,"x_max":953,"o":"m 949 667 q 914 770 940 721 q 848 860 888 819 q 759 929 808 900 q 656 975 710 958 q 628 984 636 981 q 613 990 619 988 q 597 993 606 992 q 569 997 589 994 l 569 811 q 681 769 644 808 q 733 654 717 729 l 949 667 m 953 540 l 585 540 l 585 365 l 757 365 q 731 283 744 318 q 699 224 718 249 q 649 185 679 200 q 569 163 618 169 l 569 -19 q 633 -7 604 -18 q 688 22 663 4 q 735 65 713 40 q 779 117 757 89 l 790 0 l 944 0 l 953 540 m 467 -22 l 467 163 q 358 202 397 175 q 299 269 319 229 q 274 363 279 310 q 268 482 268 417 q 274 599 268 543 q 300 698 279 654 q 360 772 321 742 q 465 811 399 801 l 467 811 l 467 994 q 446 996 460 996 q 379 988 413 996 q 217 919 282 967 q 112 805 151 872 q 56 653 72 738 q 39 474 39 569 q 58 289 39 379 q 122 128 78 199 q 237 16 165 58 q 414 -26 308 -26 q 441 -25 428 -26 q 467 -22 454 -24 z "},"H":{"ha":969,"x_min":72,"x_max":865,"o":"m 865 0 l 865 972 l 644 972 l 644 601 l 397 601 l 397 419 l 644 419 l 644 0 l 865 0 m 293 0 l 293 972 l 72 972 l 72 0 l 293 0 z "},"I":{"ha":424,"x_min":88,"x_max":306,"o":"m 306 0 l 306 972 l 88 972 l 88 0 l 306 0 z "},"J":{"ha":751,"x_min":38,"x_max":683,"o":"m 683 269 l 683 972 l 465 972 l 465 281 q 467 238 465 257 q 465 205 468 219 q 453 181 463 190 q 419 168 443 172 l 419 -17 l 456 -17 q 468 -15 463 -17 q 481 -12 474 -14 q 638 81 593 14 q 683 269 683 149 m 313 -18 l 313 168 q 271 184 285 174 q 251 210 257 194 q 247 246 246 225 q 247 293 247 267 q 248 337 247 315 q 250 381 249 358 l 38 381 l 38 306 q 51 169 38 228 q 96 69 64 110 q 181 6 128 28 q 313 -18 233 -17 z "},"K":{"ha":990,"x_min":47,"x_max":913,"o":"m 913 0 l 517 531 l 890 974 l 608 974 l 371 643 l 371 401 l 642 0 l 913 0 m 265 0 l 265 972 l 47 972 l 47 0 l 265 0 z "},"L":{"ha":778,"x_min":33,"x_max":714,"o":"m 254 0 l 254 974 l 33 974 l 33 0 l 254 0 m 714 0 l 714 182 l 357 182 l 357 0 l 714 0 z "},"M":{"ha":1156,"x_min":68,"x_max":1057,"o":"m 1057 0 l 1057 972 l 854 972 l 854 0 l 1057 0 m 763 535 l 763 972 l 746 972 q 648 603 697 786 q 563 232 599 421 q 472 603 522 421 q 372 972 422 786 l 363 972 l 363 526 q 367 505 363 521 q 376 472 371 489 q 387 438 382 454 q 393 413 392 421 l 453 0 l 672 0 l 732 421 q 738 446 733 429 q 749 480 743 463 q 758 513 754 497 q 763 535 763 529 m 272 0 l 272 972 l 68 972 l 68 0 l 272 0 z "},"N":{"ha":964,"x_min":71,"x_max":863,"o":"m 861 142 l 861 972 l 642 972 l 651 492 l 861 142 m 863 0 l 279 971 l 74 971 l 654 0 l 863 0 m 289 0 l 279 485 l 71 836 l 71 0 l 289 0 z "},"O":{"ha":1079,"x_min":43,"x_max":1004,"o":"m 1004 490 q 901 845 1004 713 q 576 997 799 978 l 576 811 q 685 774 646 804 q 745 699 725 744 q 770 596 765 653 q 775 478 775 539 q 768 363 775 414 q 740 272 761 311 q 681 206 719 232 q 576 167 642 179 l 576 -18 l 601 -18 q 781 26 706 -18 q 906 141 857 69 q 980 303 956 213 q 1004 490 1004 394 m 471 168 q 365 210 404 182 q 306 278 326 238 q 278 373 285 319 q 272 490 272 426 q 279 603 272 549 q 308 701 286 657 q 368 774 329 744 q 471 811 407 804 l 471 813 l 471 997 q 282 954 363 994 q 149 846 201 914 q 69 686 96 778 q 43 490 43 594 q 62 320 43 403 q 121 169 81 238 q 225 53 161 101 q 379 -11 289 6 q 424 -16 401 -15 q 469 -17 446 -17 l 471 168 z "},"P":{"ha":889,"x_min":54,"x_max":806,"o":"m 806 654 q 790 798 806 738 q 742 897 775 858 q 654 953 708 935 q 522 972 600 972 l 378 972 l 378 794 l 386 794 q 467 794 431 794 q 531 782 504 794 q 572 738 557 769 q 586 646 586 707 q 578 575 586 601 q 552 535 569 549 q 508 517 535 521 q 447 514 482 514 l 378 514 l 378 338 l 488 338 q 630 352 569 338 q 729 403 690 367 q 787 501 768 440 q 806 654 806 563 m 272 0 l 272 972 l 54 972 l 54 0 l 272 0 z "},"Q":{"ha":1090,"x_min":42,"x_max":1046,"o":"m 1046 111 l 935 207 q 986 349 971 275 q 1003 500 1001 422 q 968 697 1003 606 q 870 853 933 788 q 718 957 807 919 q 521 994 629 994 q 318 956 407 994 q 167 849 229 917 q 74 688 106 781 q 42 485 42 594 q 73 284 42 376 q 164 124 104 192 q 312 18 224 57 q 513 -21 400 -21 q 571 -18 539 -21 q 634 -10 603 -15 q 694 6 665 -4 q 747 29 724 15 l 576 172 q 518 165 544 165 q 401 195 449 165 q 325 272 354 225 q 283 378 296 319 q 271 496 271 438 q 285 610 271 554 q 330 711 299 667 q 408 783 361 756 q 522 810 456 810 q 640 781 592 810 q 717 704 688 751 q 760 599 747 657 q 774 481 774 540 q 770 417 774 449 q 757 353 767 385 l 654 438 l 539 296 l 929 -31 l 1046 111 z "},"R":{"ha":939,"x_min":49,"x_max":860,"o":"m 860 0 q 820 77 836 39 q 796 161 804 115 q 783 242 789 197 q 766 329 778 286 q 732 407 754 372 q 669 458 710 442 q 656 464 663 461 q 642 469 649 467 q 714 491 682 469 q 769 546 746 513 q 803 619 792 579 q 815 694 815 658 q 797 819 815 769 q 749 901 779 869 q 675 947 718 932 q 583 967 632 961 q 481 973 535 974 q 372 974 426 972 l 372 789 l 378 789 q 428 790 403 789 q 481 792 454 792 q 533 788 510 792 q 571 774 556 785 q 594 740 586 763 q 601 678 601 717 q 595 601 601 629 q 573 557 589 572 q 531 537 557 542 q 467 532 506 532 q 420 533 443 532 q 374 533 397 533 l 371 358 q 396 358 389 358 q 408 358 404 358 q 421 357 414 358 q 446 354 428 356 q 519 328 494 349 q 556 279 544 308 q 570 214 567 250 q 581 140 574 178 q 600 68 588 103 q 629 0 613 33 l 860 0 m 267 0 l 267 974 l 49 974 l 49 0 l 267 0 z "},"S":{"ha":932,"x_min":38,"x_max":864,"o":"m 849 686 q 842 726 844 706 q 835 767 840 747 q 725 931 806 876 q 535 992 644 985 l 515 993 l 515 815 q 574 802 553 811 q 606 776 594 793 q 623 733 618 760 q 632 669 628 707 l 849 686 m 864 271 q 840 406 864 351 q 775 495 815 460 q 683 551 735 531 q 578 584 632 571 q 474 606 525 597 q 382 629 422 615 q 317 665 342 643 q 292 724 292 686 q 301 772 292 753 q 328 801 311 790 q 365 815 344 811 q 410 818 386 818 l 410 993 l 401 993 q 269 977 331 993 q 164 926 208 961 q 94 835 119 892 q 69 699 69 779 q 94 578 69 626 q 158 499 118 531 q 250 449 199 468 q 355 417 301 431 q 460 393 408 404 q 551 367 511 382 q 616 327 592 351 q 640 263 640 303 q 630 214 640 233 q 601 183 619 194 q 561 165 583 171 q 515 158 539 160 l 515 -24 q 549 -21 535 -22 q 577 -17 564 -19 q 604 -12 590 -15 q 638 -3 618 -8 q 725 35 683 10 q 797 97 767 61 q 846 176 828 132 q 864 271 864 221 m 410 -26 l 408 157 q 337 169 363 161 q 297 196 311 178 q 275 243 283 214 q 256 318 267 272 l 38 307 q 111 75 42 156 q 325 -21 181 -6 q 368 -24 347 -24 q 410 -26 389 -25 z "},"T":{"ha":826,"x_min":-3,"x_max":797,"o":"m 797 792 l 797 974 l 585 974 l 585 792 l 797 792 m 196 790 l 196 974 l -3 974 l -3 790 l 196 790 m 507 0 l 507 974 l 286 974 l 286 0 l 507 0 z "},"U":{"ha":943,"x_min":67,"x_max":847,"o":"m 847 369 l 847 969 l 626 969 l 626 382 q 628 302 626 340 q 620 234 629 264 q 586 186 611 204 q 510 167 561 168 l 510 165 l 510 -21 q 679 6 614 -17 q 782 76 744 29 q 833 194 819 122 q 847 369 847 267 m 407 -24 l 406 163 q 335 183 360 168 q 300 222 311 199 q 288 279 289 246 q 286 356 286 313 l 286 969 l 67 969 l 67 354 q 83 185 67 256 q 139 68 100 114 q 243 0 178 22 q 407 -24 308 -22 z "},"V":{"ha":913,"x_min":-1,"x_max":883,"o":"m 883 972 l 649 972 l 506 444 l 606 125 l 883 972 m 544 0 l 238 972 l -1 972 l 339 0 l 544 0 z "},"W":{"ha":1250,"x_min":-7,"x_max":1226,"o":"m 1226 972 l 1011 972 l 919 524 l 1013 135 l 1226 972 m 951 0 l 714 972 l 506 972 l 431 508 l 528 136 l 611 643 l 753 0 l 951 0 m 467 0 l 211 972 l -7 972 l 267 0 l 467 0 z "},"X":{"ha":936,"x_min":6,"x_max":900,"o":"m 876 971 l 629 971 l 518 774 l 639 581 l 876 971 m 900 0 l 279 972 l 32 972 l 654 0 l 900 0 m 392 253 l 267 444 l 6 0 l 254 0 l 392 253 z "},"Y":{"ha":894,"x_min":-6,"x_max":869,"o":"m 869 972 l 626 972 l 493 663 l 603 442 l 869 972 m 540 0 l 540 361 l 239 972 l -6 972 l 319 365 l 319 0 l 540 0 z "},"Z":{"ha":900,"x_min":24,"x_max":846,"o":"m 594 972 l 53 972 l 53 789 l 439 789 l 594 972 m 838 803 l 838 972 l 713 972 l 24 163 l 24 0 l 157 0 l 838 803 m 846 0 l 846 179 l 425 179 l 275 0 l 846 0 z "},"[":{"ha":550,"x_min":56,"x_max":464,"o":"m 464 810 l 464 972 l 296 972 l 296 810 l 464 810 m 258 -239 l 258 972 l 56 972 l 56 -239 l 258 -239 m 464 -239 l 464 -76 l 297 -76 l 297 -239 l 464 -239 z "},"\\":{"ha":472,"x_min":7,"x_max":436,"o":"m 436 -26 l 99 1014 l 7 1014 l 344 -26 l 436 -26 z "},"]":{"ha":540,"x_min":50,"x_max":458,"o":"m 219 808 l 219 972 l 50 972 l 50 808 l 219 808 m 458 -240 l 458 972 l 256 972 l 256 -240 l 458 -240 m 218 -240 l 218 -76 l 50 -76 l 50 -240 l 218 -240 z "},"^":{"ha":276,"x_min":-106,"x_max":351,"o":"m 351 1057 l 236 1229 l 14 1229 l -106 1056 l 56 1056 l 124 1149 l 194 1057 l 351 1057 z "},"_":{"ha":744,"x_min":-25,"x_max":740,"o":"m 740 -415 l 740 -346 l -25 -346 l -25 -415 l 740 -415 z "},"`":{"ha":236,"x_min":-50,"x_max":254,"o":"m 254 833 l 188 1036 l -50 1036 l 118 833 l 254 833 z "},"a":{"ha":825,"x_min":43,"x_max":753,"o":"m 753 0 q 731 107 736 53 q 726 215 726 161 q 728 317 726 267 q 731 417 731 367 q 715 572 731 507 q 660 679 699 638 q 559 741 622 721 q 403 761 496 761 l 403 763 q 303 752 354 763 q 209 718 253 742 q 134 657 165 694 q 92 565 103 619 q 88 535 89 550 q 83 504 86 519 l 281 504 q 318 576 282 553 q 399 599 354 599 q 484 578 451 599 q 517 499 517 557 l 517 111 q 531 0 517 51 l 753 0 m 426 3 q 419 74 419 42 q 420 108 419 88 q 421 143 421 129 q 421 158 421 157 q 407 151 421 158 q 353 143 393 144 q 288 163 319 143 q 257 219 257 182 q 272 273 257 254 q 310 301 288 292 q 360 315 333 311 q 413 322 388 318 l 413 468 q 394 465 399 465 q 390 465 392 465 q 385 465 389 465 q 368 461 382 464 q 251 438 310 450 q 147 401 193 426 q 72 333 101 376 q 43 214 43 289 q 63 115 43 158 q 118 40 83 71 q 200 -8 153 8 q 300 -25 247 -25 q 340 -26 326 -25 q 366 -24 354 -26 q 390 -16 378 -22 q 426 3 403 -10 z "},"b":{"ha":867,"x_min":64,"x_max":772,"o":"m 772 385 q 753 526 772 457 q 696 647 735 594 q 597 733 657 700 q 457 765 538 765 q 387 758 418 765 q 356 751 356 751 l 356 574 q 372 583 356 574 q 418 592 389 592 q 485 572 458 592 q 528 521 513 551 q 550 453 543 490 q 557 383 557 417 q 553 306 557 346 q 535 231 549 265 q 494 174 521 196 q 421 153 467 153 q 387 160 403 153 q 363 173 371 167 q 353 181 354 179 l 351 181 l 351 7 q 365 -1 353 6 q 402 -15 378 -7 q 451 -22 426 -22 q 597 13 536 -22 q 697 106 658 49 q 754 237 736 164 q 772 385 772 310 m 276 0 l 276 972 l 64 972 l 64 0 l 276 0 z "},"c":{"ha":832,"x_min":40,"x_max":760,"o":"m 754 488 q 744 533 749 511 q 731 578 739 556 q 628 719 694 676 q 464 769 563 763 l 464 596 q 506 581 492 590 q 527 558 519 572 q 538 524 535 544 q 546 478 540 504 l 754 488 m 760 278 l 551 286 q 541 238 544 260 q 530 201 538 217 q 507 174 522 185 q 464 158 492 163 l 464 -19 q 587 7 538 -14 q 669 65 636 28 q 724 154 703 101 q 760 278 744 207 m 361 -21 l 361 160 q 299 192 319 171 q 269 242 278 214 q 261 306 261 271 q 261 381 261 342 q 262 451 261 415 q 271 516 263 486 q 299 567 279 546 q 360 594 319 589 l 361 594 l 361 768 q 213 731 274 763 q 113 646 151 699 q 58 522 75 593 q 40 367 40 451 q 58 212 40 281 q 113 93 75 143 q 213 14 151 43 q 361 -21 274 -15 z "},"d":{"ha":839,"x_min":50,"x_max":758,"o":"m 758 1 l 758 976 l 547 976 l 547 1 l 758 1 m 443 153 q 444 154 443 153 q 442 157 446 156 q 421 158 438 158 q 347 178 376 158 q 299 228 317 197 q 273 296 281 258 q 265 371 265 333 q 274 444 265 406 q 300 516 282 483 q 348 569 318 549 q 421 590 378 590 q 444 595 446 590 q 443 600 443 600 l 443 758 q 428 762 443 758 q 378 765 414 765 q 233 731 294 765 q 131 641 171 697 q 70 514 90 585 q 50 368 50 443 q 70 223 50 293 q 131 99 90 153 q 234 13 172 46 q 378 -19 296 -19 q 430 -15 418 -19 q 442 -11 442 -11 l 443 153 z "},"e":{"ha":858,"x_min":42,"x_max":786,"o":"m 786 311 l 786 343 q 764 508 786 431 q 697 642 742 585 q 582 733 651 700 q 418 767 513 767 q 261 735 331 767 q 143 650 192 704 q 68 523 94 596 q 42 365 42 450 q 67 208 42 279 q 142 85 93 136 q 260 7 190 35 q 418 -21 331 -21 q 542 -7 489 -21 q 638 35 596 7 q 715 109 681 64 q 778 217 749 154 l 564 232 q 508 172 540 193 q 429 151 475 151 q 347 171 381 151 q 293 222 314 190 q 263 294 272 253 q 254 376 254 335 q 262 457 254 417 q 288 529 269 497 q 339 581 307 561 q 418 601 371 601 q 518 566 483 601 q 565 471 553 531 l 372 471 q 365 431 368 451 q 361 392 361 411 q 363 351 361 371 q 368 311 365 331 l 786 311 z "},"f":{"ha":557,"x_min":33,"x_max":493,"o":"m 493 583 l 493 744 l 350 744 l 350 754 q 372 801 350 790 q 426 811 394 811 q 459 810 443 811 q 492 810 475 810 l 492 974 l 351 974 q 249 960 290 974 q 182 919 207 947 q 146 849 157 892 q 135 747 135 806 l 33 746 l 33 583 l 133 583 l 133 0 l 350 0 l 350 583 l 493 583 z "},"g":{"ha":863,"x_min":47,"x_max":785,"o":"m 785 69 l 785 744 l 574 744 l 574 74 q 542 -42 574 -1 q 433 -82 511 -82 q 360 -68 392 -82 q 313 -14 329 -54 l 313 -12 l 88 -12 q 100 -72 89 -43 q 151 -160 118 -126 q 226 -214 183 -194 q 317 -241 268 -233 q 418 -249 367 -249 q 566 -232 499 -249 q 682 -178 633 -215 q 758 -80 731 -140 q 785 69 785 -19 m 467 247 q 453 236 467 247 q 411 225 440 225 q 344 240 374 225 q 295 281 315 256 q 265 338 275 306 q 254 406 254 371 q 265 473 254 440 q 297 532 276 506 q 347 574 317 558 q 414 590 376 590 q 452 581 438 590 q 467 572 467 572 l 467 736 q 440 751 467 736 q 365 765 414 765 q 231 735 290 765 q 131 656 172 706 q 69 541 90 606 q 47 407 47 476 q 67 271 47 336 q 125 156 86 206 q 222 76 164 106 q 357 46 279 46 q 438 53 410 46 q 465 60 465 60 l 467 247 z "},"h":{"ha":840,"x_min":69,"x_max":742,"o":"m 742 0 l 742 483 q 728 594 742 543 q 684 683 714 646 q 608 742 654 721 q 497 764 561 764 q 429 751 460 764 q 385 726 399 738 q 369 714 371 715 l 371 549 q 379 558 372 550 q 399 574 386 565 q 421 583 411 583 q 481 571 458 583 q 514 537 503 558 q 528 487 525 515 q 532 428 532 458 l 532 0 l 742 0 m 278 0 l 278 972 l 69 972 l 69 0 l 278 0 z "},"i":{"ha":415,"x_min":88,"x_max":299,"o":"m 299 783 l 299 972 l 88 972 l 88 783 l 299 783 m 299 0 l 299 746 l 88 746 l 88 0 l 299 0 z "},"j":{"ha":388,"x_min":10,"x_max":346,"o":"m 346 782 l 346 972 l 136 972 l 136 782 l 346 782 m 344 -17 l 344 746 l 135 746 l 135 25 q 113 -41 135 -22 q 46 -60 90 -60 l 11 -60 l 10 -60 l 10 -237 q 26 -239 18 -239 q 43 -239 35 -239 q 164 -234 108 -239 q 260 -207 219 -229 q 322 -140 300 -185 q 344 -17 344 -96 z "},"k":{"ha":858,"x_min":46,"x_max":782,"o":"m 782 0 l 514 435 l 761 746 l 486 746 l 365 532 l 365 292 l 513 0 l 782 0 m 257 0 l 257 972 l 46 972 l 46 0 l 257 0 z "},"l":{"ha":415,"x_min":88,"x_max":297,"o":"m 297 0 l 297 972 l 88 972 l 88 0 l 297 0 z "},"m":{"ha":1228,"x_min":60,"x_max":1138,"o":"m 1138 0 l 1138 440 q 1129 564 1138 506 q 1095 667 1121 622 q 1022 738 1069 711 q 897 764 975 764 q 767 731 822 764 q 672 638 713 697 q 608 733 644 700 q 503 765 571 765 q 442 750 472 765 q 397 722 413 735 q 378 707 381 710 l 379 707 l 379 546 q 410 564 393 556 q 444 572 428 572 q 474 560 464 572 q 489 526 485 547 q 494 475 493 504 q 494 413 494 446 l 494 0 l 708 0 l 708 425 q 713 479 708 453 q 731 526 718 506 q 764 558 743 546 q 818 571 785 571 q 869 559 849 571 q 902 528 890 547 q 919 485 914 510 q 924 433 924 460 l 926 0 l 1138 0 m 274 0 l 274 744 l 60 744 l 60 0 l 274 0 z "},"n":{"ha":851,"x_min":71,"x_max":749,"o":"m 749 0 l 749 458 q 735 567 749 514 q 694 663 722 621 q 621 731 665 706 q 513 757 576 757 q 447 744 475 757 q 408 721 419 732 q 394 708 396 710 l 393 708 l 393 540 q 407 550 394 542 q 435 568 419 558 q 453 578 450 578 q 497 567 481 578 q 521 538 513 556 q 531 496 529 519 q 533 447 533 472 l 533 0 l 749 0 m 285 0 l 285 744 l 71 744 l 71 0 l 285 0 z "},"o":{"ha":892,"x_min":44,"x_max":818,"o":"m 818 381 q 735 655 818 551 q 483 768 651 758 l 483 599 q 553 570 529 590 q 587 520 576 550 q 599 453 597 490 q 600 375 600 417 q 597 301 600 339 q 583 232 594 264 q 549 178 572 200 q 483 151 525 157 l 483 -21 q 518 -17 501 -18 q 551 -12 535 -15 q 673 38 622 1 q 756 128 724 75 q 803 246 789 181 q 818 381 818 311 m 379 -22 l 379 150 q 308 182 332 161 q 273 232 283 203 q 262 298 263 261 q 261 379 261 335 q 264 453 261 417 q 278 521 267 490 q 313 572 289 551 q 379 597 338 592 l 379 768 q 233 734 296 765 q 128 649 169 703 q 65 525 86 596 q 44 372 44 454 q 58 238 44 303 q 101 121 71 174 q 181 32 132 68 q 300 -17 229 -4 q 340 -20 319 -19 q 379 -22 360 -21 z "},"p":{"ha":872,"x_min":67,"x_max":789,"o":"m 525 -18 q 639 16 590 -18 q 721 105 688 50 q 771 231 754 160 q 788 375 788 301 q 773 519 789 449 q 724 645 757 590 q 641 734 690 700 q 525 768 592 768 q 466 756 499 768 q 413 732 433 743 q 390 719 393 721 l 392 719 l 392 553 q 406 563 393 554 q 442 583 419 572 q 482 593 464 593 q 535 561 514 593 q 565 481 556 529 q 575 376 575 433 q 564 273 575 321 q 531 193 553 225 q 476 161 508 161 q 438 170 460 161 q 401 188 415 179 q 385 197 388 196 l 385 17 q 400 11 385 17 q 437 -1 415 6 q 483 -12 458 -7 q 525 -18 507 -18 m 279 -232 l 279 749 l 67 749 l 67 -232 l 279 -232 z "},"q":{"ha":838,"x_min":50,"x_max":758,"o":"m 758 -233 l 758 746 l 547 746 l 547 -233 l 758 -233 m 440 556 l 440 728 q 421 738 438 729 q 376 756 404 746 q 326 765 347 765 q 191 733 244 765 q 106 646 138 700 q 63 522 75 592 q 50 376 50 451 q 62 234 50 304 q 104 108 74 164 q 188 18 135 53 q 324 -17 240 -17 q 375 -12 350 -17 q 413 -3 400 -7 q 428 3 426 1 l 428 186 q 414 172 428 186 q 368 157 400 157 q 307 177 328 157 q 276 228 286 197 q 266 297 267 260 q 265 367 265 333 q 264 446 265 406 q 269 519 263 486 q 299 572 276 551 q 369 592 321 592 q 402 583 385 592 q 429 565 419 574 q 440 556 439 557 z "},"r":{"ha":532,"x_min":61,"x_max":500,"o":"m 500 758 q 479 760 489 760 q 458 761 469 761 q 400 749 428 761 q 357 727 372 738 q 340 715 342 717 l 342 714 l 342 528 q 357 538 343 529 q 398 558 371 547 q 453 568 425 568 q 499 563 478 568 l 500 758 m 276 0 l 276 746 l 61 746 l 61 0 l 276 0 z "},"s":{"ha":806,"x_min":46,"x_max":729,"o":"m 710 515 q 681 630 701 583 q 628 706 661 676 q 549 749 596 735 q 439 771 503 764 l 439 769 l 439 611 q 473 605 460 614 q 494 580 486 596 q 504 544 501 564 q 508 504 507 524 l 710 515 m 729 242 q 696 353 729 311 q 612 419 663 394 q 502 458 561 444 q 392 483 443 471 q 308 509 342 494 q 274 553 274 524 q 290 601 274 589 q 333 614 306 614 l 333 769 q 224 753 274 767 q 140 710 175 739 q 87 634 106 681 q 68 519 68 588 q 101 414 68 454 q 184 349 135 374 q 291 310 233 324 q 398 285 349 297 q 481 256 447 272 q 514 213 514 240 q 493 153 514 168 q 436 136 472 138 l 438 -21 q 556 -6 501 -19 q 648 38 610 7 q 708 118 686 68 q 729 242 729 168 m 333 -21 l 333 139 q 266 176 281 149 q 250 261 251 203 l 46 254 q 69 131 47 181 q 127 50 90 82 q 216 2 164 18 q 333 -21 268 -14 z "},"t":{"ha":553,"x_min":32,"x_max":490,"o":"m 490 585 l 490 747 l 347 747 l 347 906 l 135 794 l 135 747 l 32 747 l 32 585 l 135 585 l 135 201 q 182 43 135 93 q 339 -7 229 -7 q 414 -5 376 -7 q 488 3 451 -3 l 488 168 q 456 164 472 165 q 422 163 439 163 q 363 186 378 163 q 349 250 349 210 l 349 585 l 490 585 z "},"u":{"ha":849,"x_min":71,"x_max":747,"o":"m 747 0 l 747 747 l 535 747 l 535 0 l 747 0 m 431 13 l 429 169 l 429 172 l 429 169 q 422 162 428 167 q 396 157 417 157 q 342 171 364 157 q 308 207 321 185 q 290 256 296 229 q 285 311 285 283 l 283 747 l 71 747 l 71 306 q 81 190 71 247 q 115 86 90 132 q 185 11 140 40 q 300 -18 229 -18 q 367 -10 336 -18 q 414 4 399 -3 q 431 13 429 11 z "},"v":{"ha":758,"x_min":6,"x_max":721,"o":"m 721 744 l 494 744 l 428 439 l 526 118 l 721 744 m 460 0 l 233 744 l 6 744 l 265 0 l 460 0 z "},"w":{"ha":1113,"x_min":-1,"x_max":1083,"o":"m 1083 746 l 864 746 l 797 439 l 896 65 l 1083 746 m 828 0 l 635 746 l 449 746 l 379 449 l 461 124 q 485 226 475 181 q 503 317 494 272 q 521 408 511 361 q 543 511 531 454 q 603 255 572 382 q 667 -1 635 128 l 828 0 m 411 0 l 221 747 l -1 747 l 217 0 l 411 0 z "},"x":{"ha":804,"x_min":1,"x_max":774,"o":"m 319 633 l 254 746 l 7 746 l 199 456 l 319 633 m 774 0 l 568 286 l 446 110 l 529 0 l 774 0 m 747 746 l 508 746 l 1 0 l 240 0 l 747 746 z "},"y":{"ha":754,"x_min":1,"x_max":721,"o":"m 721 744 l 494 744 l 413 410 l 503 88 l 721 744 m 454 -44 l 235 744 l 1 744 q 34 657 11 715 q 84 527 57 599 q 140 377 111 456 q 194 230 169 299 q 233 110 218 161 q 249 39 249 58 q 218 -41 250 -22 q 132 -60 186 -60 l 72 -60 l 72 -228 q 122 -228 97 -228 q 172 -229 147 -229 q 272 -222 226 -229 q 354 -194 318 -214 q 416 -137 390 -174 q 454 -44 442 -101 z "},"z":{"ha":764,"x_min":38,"x_max":697,"o":"m 456 746 l 79 746 l 79 572 l 296 572 l 456 746 m 675 579 l 675 746 l 572 746 l 38 160 l 38 0 l 153 0 l 675 579 m 697 179 l 431 179 l 269 0 l 696 0 l 697 179 z "},"{":{"ha":419,"x_min":22,"x_max":367,"o":"m 367 -269 l 367 -181 l 307 -181 q 269 -165 283 -181 q 249 -129 256 -150 q 242 -85 243 -108 q 242 -44 242 -61 q 244 22 243 -11 q 244 89 244 56 q 242 167 244 125 q 226 249 239 210 q 190 318 214 288 q 122 361 165 349 l 122 365 q 172 393 150 372 q 209 442 194 414 q 232 500 224 469 q 242 557 240 531 q 243 569 243 564 q 243 583 243 576 l 243 792 q 245 826 243 807 q 253 863 247 846 q 273 892 260 881 q 307 904 286 904 l 367 904 l 367 994 l 275 993 q 197 968 225 993 q 153 907 168 943 q 135 828 139 871 q 132 747 132 785 l 133 650 q 133 578 133 621 q 122 497 132 536 q 90 432 113 458 q 22 406 67 406 l 24 404 l 24 322 q 76 303 54 322 q 110 258 97 285 q 129 199 124 231 q 135 143 135 168 l 135 -92 q 144 -154 135 -122 q 170 -212 153 -186 q 214 -253 188 -237 q 275 -269 240 -269 l 367 -269 z "},"|":{"ha":364,"x_min":117,"x_max":217,"o":"m 217 -26 l 217 1014 l 117 1014 l 117 -26 l 217 -26 z "},"}":{"ha":506,"x_min":65,"x_max":408,"o":"m 408 322 l 408 404 q 346 427 368 404 q 313 483 324 450 q 301 554 303 517 q 299 621 299 592 q 300 677 299 649 q 301 733 301 706 q 298 817 301 771 q 280 902 294 863 q 236 968 265 942 q 157 994 207 994 l 65 993 l 65 904 l 125 904 q 159 892 146 904 q 178 863 172 881 q 187 826 185 846 q 189 792 189 807 q 188 713 189 751 q 188 636 188 675 q 188 596 188 617 q 189 557 188 576 q 199 500 190 531 q 222 442 207 469 q 259 393 238 414 q 310 365 281 372 l 310 363 q 242 319 267 350 q 206 250 218 289 q 190 168 193 211 q 188 88 188 125 q 188 28 188 57 q 189 -31 189 -1 q 188 -74 189 -49 q 182 -124 188 -100 q 163 -164 176 -147 q 124 -181 149 -181 l 65 -181 l 65 -269 l 157 -269 q 218 -253 192 -269 q 262 -212 244 -237 q 288 -154 279 -186 q 297 -92 297 -122 l 297 143 q 303 199 297 168 q 322 258 308 231 q 356 303 335 285 q 408 322 376 322 z "},"~":{"ha":282,"x_min":-89,"x_max":340,"o":"m 340 1229 l 233 1228 q 222 1204 239 1213 q 194 1196 206 1196 q 112 1210 151 1196 q 29 1225 72 1225 q -22 1213 0 1225 q -59 1179 -44 1200 q -81 1132 -74 1158 q -89 1079 -89 1106 l -89 1078 l -89 1061 l 15 1061 q 26 1081 18 1072 q 47 1089 35 1089 q 131 1074 90 1089 q 214 1058 171 1058 q 273 1074 249 1058 q 312 1114 297 1089 q 333 1169 326 1139 q 340 1229 340 1200 z "},"":{"ha":382,"x_min":65,"x_max":286,"o":"m 286 207 l 82 207 l 79 0 l 185 0 q 147 -95 175 -56 q 65 -158 118 -135 l 67 -158 l 67 -233 q 206 -158 160 -200 q 269 -64 251 -117 q 285 56 286 -11 q 286 207 285 124 z "},"":{"ha":1060,"x_min":60,"x_max":971,"o":"m 971 429 q 935 606 971 522 q 838 751 899 689 q 693 849 776 813 q 517 885 610 885 q 339 849 422 885 q 193 751 256 813 q 95 606 131 689 q 60 429 60 522 q 96 252 60 335 q 194 108 132 169 q 339 10 256 46 q 517 -26 422 -26 q 692 10 610 -26 q 837 108 775 46 q 935 252 899 169 q 971 429 971 335 m 919 429 q 888 273 919 346 q 801 145 856 200 q 673 58 746 90 q 517 26 600 26 q 360 58 433 26 q 231 144 286 90 q 144 272 176 199 q 113 429 113 346 q 158 615 113 529 q 278 756 203 700 l 278 165 l 421 165 l 421 808 l 378 808 q 515 832 444 832 l 515 833 q 654 808 589 833 l 492 808 l 492 689 l 746 689 l 746 760 q 872 618 825 704 q 919 429 919 532 m 722 446 l 722 561 l 492 561 l 492 446 l 722 446 m 753 165 l 753 285 l 492 285 l 492 165 l 753 165 z "},"":{"ha":653,"x_min":64,"x_max":557,"o":"m 557 90 q 556 149 557 119 q 556 207 556 178 l 347 208 l 347 0 l 453 0 q 421 -91 450 -53 q 344 -151 392 -129 l 344 -229 q 364 -223 354 -226 q 383 -215 374 -219 q 473 -165 439 -194 q 526 -97 507 -135 q 551 -12 544 -58 q 557 90 557 35 m 279 76 q 280 142 281 110 q 279 207 279 175 l 71 208 l 71 0 l 179 0 q 168 -49 176 -25 q 144 -94 160 -74 q 109 -131 129 -115 q 64 -151 89 -146 l 64 -231 q 171 -183 129 -208 q 237 -124 213 -158 q 270 -41 261 -89 q 279 76 279 7 z "},"":{"ha":1335,"x_min":122,"x_max":1182,"o":"m 1182 0 l 1182 146 l 1039 146 l 1039 0 l 1182 0 m 724 0 l 724 146 l 581 146 l 581 0 l 724 0 m 265 0 l 265 146 l 122 146 l 122 0 l 265 0 z "},"":{"ha":811,"x_min":42,"x_max":740,"o":"m 740 519 l 740 692 l 529 692 l 529 519 l 740 519 m 494 -144 l 494 971 l 289 971 l 289 -144 l 494 -144 m 254 519 l 254 692 l 42 692 l 42 519 l 254 519 z "},"":{"ha":1060,"x_min":60,"x_max":971,"o":"m 971 429 q 935 606 971 522 q 838 751 899 689 q 693 849 776 813 q 517 885 610 885 q 339 849 422 885 q 193 751 256 813 q 95 606 131 689 q 60 429 60 522 q 96 252 60 335 q 194 108 132 169 q 339 10 256 46 q 517 -26 422 -26 q 692 10 610 -26 q 837 108 775 46 q 935 252 899 169 q 971 429 971 335 m 919 429 q 888 273 919 346 q 801 145 856 200 q 673 58 746 90 q 517 26 600 26 q 360 58 433 26 q 231 144 286 90 q 144 272 176 199 q 113 429 113 346 q 141 578 113 508 q 219 703 169 649 l 219 185 l 342 185 l 342 767 l 294 767 q 398 815 343 799 q 515 832 453 832 l 515 833 q 632 816 576 833 q 736 767 688 799 l 690 767 l 690 185 l 811 185 l 811 703 q 890 578 861 649 q 919 429 919 508 m 635 504 l 635 767 l 625 767 q 567 546 597 656 q 515 324 538 436 q 462 546 492 436 q 401 767 432 656 l 396 767 l 396 500 q 399 487 396 496 q 404 467 401 478 q 410 447 407 457 q 414 432 414 436 l 450 185 l 581 185 l 617 436 q 620 451 617 440 q 626 472 624 461 q 632 492 629 482 q 635 504 635 501 z "},"":{"ha":332,"x_min":-75,"x_max":375,"o":"m 375 826 l 253 1035 l 58 1035 l -75 826 l 82 826 l 153 942 l 222 826 l 375 826 z "},"":{"ha":1060,"x_min":60,"x_max":971,"o":"m 971 429 q 935 606 971 522 q 838 751 899 689 q 693 849 776 813 q 517 885 610 885 q 339 849 422 885 q 193 751 256 813 q 95 606 131 689 q 60 429 60 522 q 96 252 60 335 q 194 108 132 169 q 339 10 256 46 q 517 -26 422 -26 q 692 10 610 -26 q 837 108 775 46 q 935 252 899 169 q 971 429 971 335 m 919 429 q 901 309 919 367 q 849 203 882 251 q 866 260 861 229 q 871 326 871 292 q 866 389 871 356 q 847 451 861 422 q 810 498 833 479 q 750 517 786 517 l 740 517 l 740 442 q 767 425 757 439 q 781 393 776 411 q 787 356 786 375 q 788 325 788 338 q 787 291 788 310 q 781 255 786 272 q 767 224 776 238 q 740 203 757 210 l 740 126 q 780 137 763 129 q 811 156 797 144 q 679 61 754 96 q 517 26 604 26 q 360 58 433 26 q 231 144 286 90 q 144 272 176 199 q 113 429 113 346 q 131 553 113 494 q 186 663 150 613 q 166 598 171 632 q 161 532 161 564 q 167 465 161 496 q 187 408 172 433 q 226 366 201 383 q 292 343 251 349 l 293 419 q 285 421 290 419 q 276 424 279 422 q 258 448 264 433 q 249 479 251 463 q 245 513 246 496 q 244 542 244 529 q 246 574 244 556 q 251 610 247 592 q 265 641 256 628 q 292 658 275 654 l 293 658 l 293 735 q 233 718 258 733 q 360 801 289 771 q 515 832 432 832 l 515 833 q 672 801 599 833 q 800 715 744 769 q 888 586 856 660 q 919 429 919 513 m 718 125 l 718 200 q 692 221 701 207 q 678 251 683 235 q 673 286 674 268 q 672 319 672 304 q 673 353 672 335 q 678 388 674 371 q 692 418 682 404 q 718 440 701 432 l 718 517 q 653 494 678 513 q 613 447 628 475 q 593 385 599 419 q 588 318 588 351 q 593 249 588 282 q 613 191 599 217 q 653 148 628 165 q 718 125 678 131 m 675 725 l 600 725 l 356 132 l 431 132 l 675 725 m 444 556 q 438 619 444 588 q 417 675 432 650 q 376 716 401 700 q 314 735 351 732 l 314 658 q 340 640 331 653 q 353 609 349 626 q 359 574 358 592 q 360 542 360 556 q 358 510 360 529 q 352 471 357 490 q 338 437 347 451 q 313 419 328 422 l 314 419 l 314 343 q 383 372 357 351 q 422 420 408 392 q 440 483 436 449 q 444 556 444 518 z "},"":{"ha":1060,"x_min":60,"x_max":971,"o":"m 971 429 q 935 606 971 522 q 838 751 899 689 q 693 849 776 813 q 517 885 610 885 q 339 849 422 885 q 193 751 256 813 q 95 606 131 689 q 60 429 60 522 q 96 252 60 335 q 194 108 132 169 q 339 10 256 46 q 517 -26 422 -26 q 692 10 610 -26 q 837 108 775 46 q 935 252 899 169 q 971 429 971 335 m 631 421 q 613 383 631 394 q 575 364 596 371 l 456 421 q 413 444 436 431 q 390 483 390 458 q 397 506 390 497 q 412 520 403 515 q 432 528 421 525 q 454 535 443 532 l 581 479 q 614 456 596 472 q 631 421 632 440 m 919 429 q 888 273 919 346 q 801 145 856 200 q 673 58 746 90 q 517 26 600 26 q 453 32 481 26 l 453 133 q 376 224 376 143 l 376 229 l 254 226 l 254 201 q 292 94 254 136 q 161 237 210 149 q 113 429 113 325 q 135 564 113 500 q 200 680 158 628 q 299 769 242 732 q 422 821 356 806 q 350 778 379 808 q 321 694 321 749 l 321 693 q 374 593 321 631 q 290 549 322 579 q 257 464 257 519 q 281 388 257 418 q 339 334 304 357 q 415 295 374 311 q 490 263 456 279 q 549 230 525 247 q 572 188 572 213 q 553 150 572 164 q 514 135 535 136 l 514 31 q 587 42 551 32 q 651 73 622 53 q 696 124 679 93 q 713 196 713 154 q 698 259 713 232 q 658 310 683 286 q 732 358 706 326 q 760 442 758 390 q 738 515 760 485 q 681 566 715 544 q 608 603 647 588 q 534 633 568 618 q 478 663 500 647 q 456 701 456 679 q 475 726 456 718 q 508 735 494 733 l 508 832 l 515 832 l 515 833 q 538 833 526 833 q 561 831 550 832 l 561 732 q 619 665 619 725 l 743 667 q 719 749 733 718 q 681 797 706 779 q 777 736 733 774 q 853 651 821 699 q 902 547 885 603 q 919 429 919 490 z "},"":{"ha":471,"x_min":111,"x_max":328,"o":"m 328 149 l 328 269 l 183 382 l 328 493 l 328 614 l 111 444 l 111 318 l 328 149 z "},"":{"ha":1439,"x_min":15,"x_max":1392,"o":"m 1378 792 l 1378 969 l 1026 969 l 1026 792 l 1378 792 m 1344 418 l 1344 596 l 1026 596 l 1026 418 l 1344 418 m 1392 -3 l 1392 182 l 1026 182 l 1026 -3 l 1392 -3 m 893 -1 l 893 971 l 678 971 l 678 932 q 617 956 647 944 q 561 976 586 968 q 521 990 536 985 q 506 994 506 994 l 506 804 q 526 797 506 804 q 574 774 546 789 q 631 739 601 760 q 678 692 660 718 l 678 292 q 627 240 657 263 q 570 203 597 218 q 524 181 543 189 q 506 174 506 174 l 506 -21 q 524 -16 506 -21 q 568 -1 542 -11 q 624 20 594 8 q 678 47 654 32 l 678 -1 l 893 -1 m 400 800 l 399 801 l 399 994 q 215 949 289 989 q 97 842 142 908 q 34 686 53 775 q 15 493 15 597 q 31 292 15 385 q 88 132 46 200 q 205 24 131 64 q 397 -22 279 -17 l 397 179 q 310 223 340 192 q 265 297 279 254 q 249 391 251 340 q 246 493 246 442 q 250 590 246 540 q 269 684 254 640 q 315 760 285 728 q 400 800 346 792 z "},"":{"ha":394,"x_min":74,"x_max":292,"o":"m 292 910 l 290 985 q 178 934 219 964 q 113 863 136 904 q 83 769 90 822 q 75 647 75 715 q 74 596 75 621 q 74 546 74 571 l 279 544 l 279 750 l 178 750 q 188 800 179 775 q 211 847 196 825 q 247 885 226 869 q 292 910 267 901 z "},"":{"ha":379,"x_min":69,"x_max":281,"o":"m 281 774 l 281 975 l 78 975 l 78 768 l 183 768 q 149 673 176 718 q 69 613 121 628 l 71 611 l 71 535 q 153 567 114 546 q 219 617 192 588 q 264 686 247 647 q 281 774 281 725 z "},"":{"ha":660,"x_min":68,"x_max":561,"o":"m 561 908 l 560 988 q 448 936 490 964 q 383 870 406 908 q 351 781 360 832 q 343 660 343 729 l 343 547 l 553 546 l 553 754 l 444 754 q 480 849 450 811 q 561 908 510 886 m 278 908 l 278 983 q 190 947 229 968 q 124 897 151 926 q 83 826 97 867 q 68 731 68 785 l 68 546 l 275 546 l 275 754 l 168 754 q 179 807 171 785 q 201 847 188 829 q 234 878 215 864 q 278 908 253 893 z "},"":{"ha":650,"x_min":63,"x_max":556,"o":"m 556 857 l 556 974 l 346 975 l 346 767 l 451 767 q 420 674 453 714 q 343 613 388 635 l 342 613 l 342 536 q 451 581 408 553 q 516 650 493 610 q 547 742 539 690 q 556 857 556 793 m 278 811 l 278 974 l 69 974 l 69 765 l 178 765 q 143 673 178 714 q 63 614 108 632 l 63 613 l 63 533 q 159 578 118 556 q 226 631 200 600 q 265 704 253 661 q 278 811 278 747 z "},"":{"ha":525,"x_min":68,"x_max":426,"o":"m 426 486 q 413 555 426 522 q 375 612 399 588 q 319 651 351 636 q 251 665 288 665 q 182 651 215 665 q 124 613 149 638 q 83 556 99 589 q 68 486 68 524 q 83 416 68 449 q 122 359 97 383 q 181 321 147 335 q 251 307 214 307 q 321 321 289 307 q 376 359 353 335 q 413 416 400 383 q 426 486 426 449 z "},"":{"ha":829,"x_min":67,"x_max":732,"o":"m 732 354 l 732 521 l 67 521 l 67 354 l 732 354 z "},"":{"ha":1014,"x_min":33,"x_max":950,"o":"m 950 332 l 950 475 l 33 475 l 33 332 l 950 332 z "},"":{"ha":336,"x_min":-56,"x_max":361,"o":"m 361 969 l 361 997 q 361 1014 361 1006 q 360 1033 361 1024 l 360 1032 l 267 1032 q 257 994 264 1013 q 226 976 250 976 q 188 985 208 976 q 147 1006 168 994 q 103 1026 125 1017 q 58 1035 81 1035 q 0 1020 22 1035 q -35 982 -22 1006 q -51 929 -47 958 q -56 869 -56 900 q -56 850 -56 860 q -53 829 -56 840 l 46 829 q 51 870 44 851 q 86 889 58 889 q 130 879 108 889 q 173 858 151 869 q 217 838 194 847 q 265 828 240 828 q 316 840 297 828 q 345 873 335 853 q 358 919 356 893 q 361 969 361 944 z "},"":{"ha":1125,"x_min":-6,"x_max":1100,"o":"m 1100 386 l 1100 411 q 1079 412 1090 411 q 1058 416 1068 413 q 1042 426 1049 419 q 1035 447 1035 433 l 1035 833 q 1052 862 1035 857 q 1088 867 1069 867 l 1099 865 l 1099 889 l 950 889 l 783 510 l 611 889 l 460 889 l 460 865 q 509 862 489 867 q 529 819 529 857 l 529 447 q 522 427 529 435 q 505 417 515 419 q 483 413 494 414 q 461 413 471 413 l 463 386 l 632 386 l 632 411 q 611 412 622 411 q 590 416 600 413 q 572 426 579 419 q 565 447 565 433 l 565 793 l 756 386 l 779 386 l 956 814 l 956 447 q 949 427 956 435 q 931 417 942 419 q 909 413 921 414 q 888 413 897 413 l 889 386 l 1100 386 m 421 761 l 417 889 l -1 889 l -6 761 l 18 760 q 29 817 17 797 q 64 846 42 836 q 114 858 86 856 q 169 860 142 860 l 168 447 q 161 427 168 435 q 144 417 154 419 q 122 413 133 414 q 100 413 110 413 l 101 386 l 314 386 l 314 411 q 292 412 304 411 q 271 416 281 413 q 254 426 261 419 q 247 447 247 433 l 247 860 q 299 858 272 860 q 348 849 326 857 q 383 822 369 840 q 397 769 397 804 l 397 760 l 421 761 z "},"":{"ha":461,"x_min":107,"x_max":324,"o":"m 324 318 l 324 444 l 107 614 l 107 493 l 251 382 l 107 269 l 107 149 l 324 318 z "},"":{"ha":1382,"x_min":29,"x_max":1322,"o":"m 1322 313 q 1299 487 1319 404 q 1235 633 1279 569 q 1119 735 1190 697 q 944 772 1047 772 q 867 766 901 772 q 803 747 833 760 q 742 715 772 733 q 679 671 713 696 q 626 710 650 693 q 576 738 601 726 q 523 757 551 750 q 457 767 494 764 l 457 596 q 522 569 499 589 q 557 519 546 549 q 571 455 568 490 q 574 382 574 419 q 572 303 574 340 q 560 238 571 267 q 527 187 550 208 q 460 153 504 165 l 458 -19 q 575 12 524 -14 q 674 82 626 38 q 800 2 725 25 q 950 -21 875 -21 q 1073 -6 1018 -21 q 1172 38 1128 8 q 1249 113 1215 68 q 1311 219 1283 158 l 1093 231 q 1035 173 1072 192 q 953 154 997 154 q 869 174 903 154 q 816 225 836 193 q 788 298 796 257 q 779 382 779 339 q 787 463 779 422 q 814 535 794 503 q 865 586 833 567 q 944 606 896 606 q 999 596 972 606 q 1046 569 1025 586 q 1080 528 1067 553 q 1096 475 1093 504 l 894 475 q 885 428 888 451 q 883 382 883 406 q 893 313 883 343 l 1322 313 m 367 -21 l 367 156 q 300 185 324 164 q 265 235 276 206 q 250 301 253 265 q 247 378 247 338 q 249 453 247 417 q 263 517 251 489 q 299 566 275 546 q 365 596 322 586 l 365 767 q 219 732 282 764 q 113 647 156 700 q 50 522 71 593 q 29 369 29 450 q 51 217 29 288 q 115 95 72 147 q 221 13 158 43 q 367 -21 283 -18 z "},"":{"ha":894,"x_min":-6,"x_max":869,"o":"m 663 1058 l 663 1232 l 482 1232 l 482 1058 l 663 1058 m 339 1058 l 339 1231 l 158 1231 l 158 1058 l 339 1058 m 869 972 l 626 972 l 493 663 l 603 442 l 869 972 m 540 0 l 540 361 l 239 972 l -6 972 l 319 365 l 319 0 l 540 0 z "},"":{"ha":383,"x_min":71,"x_max":282,"o":"m 282 768 l 282 971 l 79 971 l 79 768 l 282 768 m 282 0 l 282 325 q 270 510 282 418 q 250 693 258 601 l 108 693 q 85 510 99 601 q 71 324 71 418 l 71 0 l 282 0 z "},"":{"ha":889,"x_min":40,"x_max":818,"o":"m 493 -153 l 493 901 l 393 901 l 393 -153 l 493 -153 m 544 576 q 583 533 569 560 q 601 478 596 506 l 811 488 q 778 592 799 546 q 727 672 758 638 q 651 729 696 707 q 546 763 607 751 l 544 576 m 544 576 l 544 764 l 544 576 m 339 575 l 339 761 l 339 575 m 546 -11 q 652 24 607 -1 q 730 86 697 49 q 784 172 763 124 q 818 278 806 221 l 608 286 q 585 226 601 254 q 542 179 569 197 l 546 -11 m 339 574 q 299 536 314 558 q 275 488 283 514 q 264 433 267 461 q 261 379 261 406 q 264 324 261 351 q 275 270 267 296 q 299 222 283 244 q 339 185 314 200 l 339 574 m 544 -10 l 544 178 l 544 -10 m 339 761 q 208 713 264 749 q 114 624 151 676 q 58 506 76 572 q 40 368 40 440 q 58 230 40 294 q 113 115 76 165 q 206 32 150 65 q 339 -14 263 -1 l 339 761 m 339 -14 l 339 185 l 339 -14 z "},"":{"ha":842,"x_min":29,"x_max":782,"o":"m 758 642 q 734 770 753 711 q 679 873 715 829 q 588 942 643 917 q 458 969 533 967 l 460 808 q 524 774 499 793 q 562 729 549 754 q 579 672 575 704 q 583 601 583 640 l 758 642 m 782 269 q 781 299 782 285 q 779 328 781 313 l 606 329 q 605 274 606 304 q 596 217 604 243 q 569 174 588 192 q 515 157 550 157 q 469 168 492 157 q 431 196 447 179 q 440 243 436 219 q 443 290 443 267 q 424 379 440 338 l 551 381 l 551 510 l 378 510 q 329 594 353 550 q 306 689 306 639 q 315 734 306 713 q 341 772 325 756 q 378 797 357 788 q 424 808 400 807 l 422 969 q 311 947 365 964 q 215 899 257 931 q 147 822 172 868 q 121 708 121 775 q 138 606 121 656 q 181 511 154 556 l 78 511 l 78 381 l 244 381 q 268 328 257 354 q 283 275 279 303 q 259 283 272 281 q 232 289 246 286 l 232 175 q 256 163 244 172 q 268 139 268 154 q 258 113 269 122 q 232 100 247 103 l 232 -15 q 302 6 271 -7 q 363 47 333 19 q 453 2 407 21 q 551 -17 499 -17 q 660 6 615 -17 q 731 69 704 29 q 770 160 758 108 q 782 269 782 213 m 196 -17 l 196 101 q 171 115 182 104 q 160 140 160 125 q 171 165 160 156 q 196 176 182 174 l 196 178 l 196 293 q 132 281 163 292 q 78 251 101 271 q 42 204 56 232 q 29 140 29 176 q 42 76 29 103 q 78 29 56 49 q 132 -1 101 10 q 196 -17 163 -12 z "},"":{"ha":1058,"x_min":7,"x_max":1010,"o":"m 994 675 q 869 908 963 838 q 621 988 776 979 l 621 808 q 723 765 690 801 q 774 658 756 728 l 994 675 m 1010 324 l 779 339 q 735 214 769 258 q 621 161 700 169 l 622 161 l 622 -22 q 774 10 708 -11 q 885 70 839 31 q 963 171 932 110 q 1010 324 993 232 m 947 631 l 339 631 q 361 697 347 665 q 398 753 375 729 q 453 791 421 776 q 529 808 485 806 l 531 810 l 531 989 q 368 960 440 986 q 243 886 296 933 q 156 774 190 839 q 104 631 121 708 l 31 631 l 22 539 l 92 539 q 90 513 90 526 q 90 486 90 500 l 90 464 l 15 464 l 7 372 l 99 372 q 147 216 113 288 q 235 92 181 144 q 363 10 289 40 q 532 -21 438 -19 l 532 163 q 451 182 485 164 q 393 228 417 200 q 356 294 369 257 q 335 372 342 332 l 924 372 l 932 464 l 326 464 l 326 481 q 326 510 326 496 q 328 539 326 524 l 939 539 l 947 631 z "},"":{"ha":1060,"x_min":60,"x_max":971,"o":"m 971 429 q 935 606 971 522 q 838 751 899 689 q 693 849 776 813 q 517 885 610 885 q 339 849 422 885 q 193 751 256 813 q 95 606 131 689 q 60 429 60 522 q 96 252 60 335 q 194 108 132 169 q 339 10 256 46 q 517 -26 422 -26 q 692 10 610 -26 q 837 108 775 46 q 935 252 899 169 q 971 429 971 335 m 919 429 q 888 273 919 346 q 801 145 856 200 q 673 58 746 90 q 517 26 600 26 q 360 58 433 26 q 231 144 286 90 q 144 272 176 199 q 113 429 113 346 q 144 585 113 513 q 230 713 175 658 q 358 800 285 768 q 515 832 432 832 l 515 833 q 672 801 599 833 q 800 715 744 769 q 888 586 856 660 q 919 429 919 513 m 700 256 l 700 361 l 617 361 l 617 744 l 492 744 l 492 119 l 617 119 l 617 253 l 700 256 m 424 254 l 424 361 l 346 361 l 424 497 l 424 674 l 236 385 l 236 254 l 424 254 z "},"":{"ha":1060,"x_min":60,"x_max":971,"o":"m 971 429 q 935 606 971 522 q 838 751 899 689 q 693 849 776 813 q 517 885 610 885 q 339 849 422 885 q 193 751 256 813 q 95 606 131 689 q 60 429 60 522 q 96 252 60 335 q 194 108 132 169 q 339 10 256 46 q 517 -26 422 -26 q 692 10 610 -26 q 837 108 775 46 q 935 252 899 169 q 971 429 971 335 m 919 429 q 888 273 919 346 q 801 145 856 200 q 673 58 746 90 q 517 26 600 26 q 360 58 433 26 q 231 144 286 90 q 144 272 176 199 q 113 429 113 346 q 144 585 113 513 q 230 713 175 658 q 358 800 285 768 q 515 832 432 832 l 515 833 q 672 801 599 833 q 800 715 744 769 q 888 586 856 660 q 919 429 919 513 m 758 544 l 758 665 l 618 665 l 618 544 l 758 544 m 733 582 l 721 572 l 711 560 l 700 572 l 689 582 l 700 593 l 711 604 l 721 593 l 733 582 m 574 165 l 574 807 l 431 807 l 431 165 l 574 165 m 363 543 l 363 665 l 231 665 l 231 543 l 363 543 m 344 582 l 332 572 l 322 560 l 311 572 l 300 582 l 311 593 l 322 604 l 332 593 l 344 582 z "},"":{"ha":879,"x_min":46,"x_max":801,"o":"m 776 744 q 746 858 764 814 q 697 928 728 901 q 620 969 667 956 q 506 992 574 983 l 506 842 q 569 811 547 838 q 592 743 592 785 l 776 744 m 801 408 q 768 517 801 472 q 684 593 735 561 q 574 649 633 625 q 465 694 515 672 q 381 739 415 715 q 347 796 347 763 q 356 817 347 808 q 376 833 364 826 q 403 842 389 839 q 426 846 417 844 l 426 994 q 326 983 376 993 q 236 949 276 974 q 170 885 196 925 q 144 786 144 846 l 144 785 q 166 699 144 738 q 224 633 188 661 q 99 569 149 614 q 50 440 50 524 q 85 326 50 372 q 172 246 119 279 q 285 188 225 213 q 399 140 346 164 q 486 90 451 117 q 521 26 521 64 q 493 -29 521 -10 q 433 -51 465 -49 l 433 -207 q 542 -190 489 -206 q 638 -144 596 -175 q 705 -68 679 -114 q 731 40 731 -22 q 709 134 731 93 q 650 211 688 175 q 761 283 721 235 q 801 408 801 331 m 610 376 q 602 343 610 357 q 583 319 594 329 q 556 303 571 310 q 525 290 540 296 l 347 376 q 316 392 333 383 q 284 411 299 400 q 259 437 269 422 q 249 471 249 451 q 258 504 249 492 q 281 525 267 517 q 312 538 294 533 q 344 547 329 543 l 533 464 q 559 449 546 458 q 584 429 572 440 q 603 404 596 418 q 610 376 610 390 m 343 -208 l 343 -54 q 229 81 226 -37 l 228 89 l 46 86 l 46 49 q 70 -65 46 -18 q 135 -142 94 -112 q 231 -188 176 -172 q 343 -208 285 -204 z "},"":{"ha":393,"x_min":-65,"x_max":426,"o":"m 426 832 l 426 1003 l 236 1003 l 236 832 l 426 832 m 125 832 l 125 1003 l -65 1003 l -65 832 l 125 832 z "},"":{"ha":885,"x_min":-29,"x_max":882,"o":"m 882 436 q 846 613 882 531 q 748 758 810 696 q 603 856 686 819 q 426 892 521 892 q 249 856 332 892 q 105 758 167 819 q 7 613 43 696 q -29 436 -29 531 q 7 259 -29 342 q 105 115 43 176 q 249 17 167 53 q 426 -19 332 -19 q 604 16 521 -19 q 749 113 688 51 q 847 258 811 175 q 882 436 882 342 m 829 438 q 797 281 829 354 q 710 152 765 207 q 583 65 656 97 q 426 33 510 33 q 270 65 343 33 q 142 152 197 97 q 56 280 88 207 q 24 436 24 353 q 56 592 24 519 q 142 720 88 665 q 270 807 197 775 q 426 839 343 839 q 583 807 510 839 q 710 721 656 775 q 797 594 765 667 q 829 438 829 521 m 704 610 q 622 764 683 718 q 457 817 561 810 l 457 697 q 526 669 504 693 q 558 599 547 644 l 704 610 m 714 378 l 563 388 q 533 306 556 335 q 457 271 510 276 l 458 271 l 458 150 q 558 171 515 157 q 632 210 601 185 q 683 276 663 236 q 714 378 703 317 m 399 150 l 399 272 q 331 293 357 274 q 290 342 306 313 q 269 409 275 372 q 264 482 264 446 q 268 557 264 519 q 286 625 272 594 q 326 675 300 656 q 397 697 353 694 l 399 699 l 399 817 q 271 790 325 815 q 180 720 217 764 q 125 616 143 676 q 107 485 107 556 q 126 355 107 415 q 181 249 144 294 q 272 178 218 204 q 399 150 326 151 z "},"":{"ha":1060,"x_min":60,"x_max":971,"o":"m 971 429 q 935 606 971 522 q 838 751 899 689 q 693 849 776 813 q 517 885 610 885 q 339 849 422 885 q 193 751 256 813 q 95 606 131 689 q 60 429 60 522 q 96 252 60 335 q 194 108 132 169 q 339 10 256 46 q 517 -26 422 -26 q 692 10 610 -26 q 837 108 775 46 q 935 252 899 169 q 971 429 971 335 m 919 429 q 888 273 919 346 q 801 145 856 200 q 673 58 746 90 q 517 26 600 26 q 360 58 433 26 q 231 144 286 90 q 144 272 176 199 q 113 429 113 346 q 170 638 113 544 q 324 783 228 732 l 324 165 l 463 165 l 463 807 l 375 807 q 515 832 439 832 l 515 833 q 672 801 599 833 q 800 715 744 769 q 888 586 856 660 q 919 429 919 513 m 810 165 l 632 453 l 796 657 l 614 657 l 535 517 l 535 358 l 632 165 l 810 165 z "},"":{"ha":643,"x_min":68,"x_max":543,"o":"m 543 490 l 543 663 l 326 474 l 329 306 l 542 125 l 542 293 l 429 388 l 543 490 m 281 124 l 281 294 l 167 386 l 279 483 l 279 661 l 68 475 l 68 303 l 281 124 z "},"":{"ha":1060,"x_min":60,"x_max":971,"o":"m 971 429 q 935 606 971 522 q 838 751 899 689 q 693 849 776 813 q 517 885 610 885 q 339 849 422 885 q 193 751 256 813 q 95 606 131 689 q 60 429 60 522 q 96 252 60 335 q 194 108 132 169 q 339 10 256 46 q 517 -26 422 -26 q 692 10 610 -26 q 837 108 775 46 q 935 252 899 169 q 971 429 971 335 m 919 429 q 888 273 919 346 q 801 145 856 200 q 673 58 746 90 q 517 26 600 26 q 360 58 433 26 q 231 144 286 90 q 144 272 176 199 q 113 429 113 346 q 166 631 113 539 q 310 775 219 722 l 310 165 l 454 165 l 454 808 l 379 808 q 515 832 443 832 l 515 833 q 676 799 599 833 q 610 808 644 806 q 544 810 576 810 q 535 810 536 810 q 533 808 533 810 q 532 808 533 808 q 522 808 531 808 l 522 688 q 535 688 532 688 q 539 689 538 689 q 544 690 542 689 q 557 690 547 690 q 596 688 575 690 q 634 679 617 686 q 663 658 651 672 q 675 621 675 644 q 663 586 675 599 q 633 567 650 574 q 595 559 615 561 q 558 557 575 557 q 544 558 547 557 q 540 559 542 558 q 535 560 539 560 q 522 561 532 561 l 522 446 q 535 446 532 446 q 541 447 539 446 q 546 448 543 447 q 560 449 549 449 q 603 446 581 449 q 644 435 625 443 q 674 410 663 426 q 686 368 686 394 q 674 322 686 339 q 641 297 661 306 q 597 285 621 288 q 551 283 574 283 q 540 284 542 283 q 536 285 538 285 q 534 285 536 285 q 522 286 532 286 l 522 165 q 540 166 535 165 q 547 167 544 167 q 556 166 551 167 q 574 165 561 165 q 635 167 604 165 q 694 178 665 169 q 750 201 724 186 q 796 242 776 217 q 824 294 815 265 q 833 354 833 324 q 806 450 833 413 q 728 511 778 488 q 792 565 769 535 q 817 647 815 594 q 806 708 817 682 q 889 583 858 654 q 919 429 919 511 z "},"":{"ha":1060,"x_min":60,"x_max":971,"o":"m 971 429 q 935 606 971 522 q 838 751 899 689 q 693 849 776 813 q 517 885 610 885 q 339 849 422 885 q 193 751 256 813 q 95 606 131 689 q 60 429 60 522 q 96 252 60 335 q 194 108 132 169 q 339 10 256 46 q 517 -26 422 -26 q 692 10 610 -26 q 837 108 775 46 q 935 252 899 169 q 971 429 971 335 m 919 429 q 895 292 919 357 q 828 175 871 228 q 805 222 814 199 q 790 272 796 244 q 783 325 786 296 q 771 383 779 354 q 748 434 763 411 q 707 468 733 457 q 698 472 703 471 q 689 475 693 472 q 737 490 715 475 q 773 526 758 504 q 795 574 788 547 q 803 624 803 600 q 797 687 803 660 q 781 733 792 714 q 882 599 844 676 q 919 429 919 521 m 819 165 q 685 64 764 101 q 517 26 607 26 q 360 58 433 26 q 231 144 286 90 q 144 272 176 199 q 113 429 113 346 q 163 625 113 536 q 297 768 214 714 l 297 165 l 442 165 l 442 808 l 378 808 q 515 832 444 832 l 515 833 q 674 800 600 833 q 596 807 638 807 q 511 808 554 807 l 511 686 l 515 686 q 548 687 531 686 q 582 688 565 688 q 617 685 601 688 q 642 676 632 683 q 658 653 653 668 q 663 613 663 639 q 658 562 663 581 q 644 533 654 543 q 616 520 633 524 q 574 517 599 517 q 543 517 558 517 q 513 518 528 518 l 510 401 q 526 401 522 401 q 535 401 532 401 q 542 401 538 401 q 560 399 547 400 q 608 383 592 396 q 633 350 625 369 q 642 307 640 331 q 649 258 644 283 q 681 165 657 211 l 819 165 z "},"":{"ha":1060,"x_min":60,"x_max":971,"o":"m 971 429 q 935 606 971 522 q 838 751 899 689 q 693 849 776 813 q 517 885 610 885 q 339 849 422 885 q 193 751 256 813 q 95 606 131 689 q 60 429 60 522 q 96 252 60 335 q 194 108 132 169 q 339 10 256 46 q 517 -26 422 -26 q 692 10 610 -26 q 837 108 775 46 q 935 252 899 169 q 971 429 971 335 m 919 429 q 888 273 919 346 q 801 145 856 200 q 673 58 746 90 q 517 26 600 26 q 360 58 433 26 q 231 144 286 90 q 144 272 176 199 q 113 429 113 346 q 144 585 113 513 q 230 713 175 658 q 358 800 285 768 q 515 832 432 832 l 515 833 q 592 826 556 833 q 665 804 629 818 l 568 804 l 568 347 q 569 319 568 332 q 569 297 571 307 q 560 281 567 288 q 538 274 553 275 l 538 151 l 563 151 q 578 154 569 151 q 683 216 653 172 q 713 340 713 260 l 713 781 q 797 717 758 754 q 862 635 835 681 q 904 538 889 590 q 919 429 919 485 m 468 150 l 468 274 q 428 300 432 281 q 425 356 424 319 q 425 385 425 371 q 426 414 425 399 l 286 414 l 286 364 q 295 274 286 313 q 325 208 304 235 q 381 166 346 181 q 468 150 415 151 z "},"":{"ha":472,"x_min":24,"x_max":418,"o":"m 418 707 q 403 783 418 747 q 360 845 388 818 q 298 888 333 872 q 222 904 263 904 q 144 889 181 904 q 81 847 108 874 q 39 783 54 819 q 24 707 24 747 q 39 629 24 665 q 81 566 54 593 q 144 524 108 539 q 221 508 181 508 l 221 510 q 297 525 261 510 q 359 567 332 540 q 402 631 386 594 q 418 707 418 667 m 367 704 q 355 649 367 675 q 324 602 343 622 q 277 571 304 582 q 221 560 250 560 q 165 571 192 560 q 118 602 138 582 q 87 649 99 622 q 75 706 75 675 q 86 761 75 735 q 117 808 97 788 q 164 839 138 828 q 219 850 190 850 l 219 849 q 276 838 249 849 q 323 806 303 826 q 355 760 343 786 q 367 704 367 733 z "},"":{"ha":1060,"x_min":60,"x_max":971,"o":"m 971 429 q 935 606 971 522 q 838 751 899 689 q 693 849 776 813 q 517 885 610 885 q 339 849 422 885 q 193 751 256 813 q 95 606 131 689 q 60 429 60 522 q 96 252 60 335 q 194 108 132 169 q 339 10 256 46 q 517 -26 422 -26 q 692 10 610 -26 q 837 108 775 46 q 935 252 899 169 q 971 429 971 335 m 919 429 q 888 273 919 346 q 801 145 856 200 q 673 58 746 90 q 517 26 600 26 q 360 58 433 26 q 231 144 286 90 q 144 272 176 199 q 113 429 113 346 q 144 585 113 513 q 230 713 175 658 q 358 800 285 768 q 515 832 432 832 l 515 833 q 672 801 599 833 q 800 715 744 769 q 888 586 856 660 q 919 429 919 513 m 579 106 l 579 733 l 465 733 q 458 706 463 719 q 447 679 454 692 l 447 106 l 579 106 m 376 532 l 376 653 q 363 640 367 646 q 356 632 358 635 q 347 628 353 629 q 329 626 342 626 l 315 626 l 301 626 l 301 532 l 376 532 z "},"":{"ha":315,"x_min":-1,"x_max":286,"o":"m 286 1038 l 61 1038 l -1 835 l 135 835 l 286 1038 z "},"":{"ha":1060,"x_min":60,"x_max":971,"o":"m 971 429 q 935 606 971 522 q 838 751 899 689 q 693 849 776 813 q 517 885 610 885 q 339 849 422 885 q 193 751 256 813 q 95 606 131 689 q 60 429 60 522 q 96 252 60 335 q 194 108 132 169 q 339 10 256 46 q 517 -26 422 -26 q 692 10 610 -26 q 837 108 775 46 q 935 252 899 169 q 971 429 971 335 m 919 429 q 888 273 919 346 q 801 145 856 200 q 673 58 746 90 q 517 26 600 26 q 360 58 433 26 q 231 144 286 90 q 144 272 176 199 q 113 429 113 346 q 144 585 113 513 q 230 713 175 658 q 358 800 285 768 q 515 832 432 832 l 515 833 q 672 801 599 833 q 800 715 744 769 q 888 586 856 660 q 919 429 919 513 m 719 743 l 364 743 l 343 628 l 707 628 l 719 743 m 739 344 q 728 422 739 385 q 697 487 718 458 q 645 532 676 515 q 572 549 614 549 l 549 549 l 549 442 q 600 406 589 431 q 611 338 611 382 q 601 263 611 289 q 549 219 592 236 l 549 110 q 694 182 649 125 q 739 344 739 239 m 478 544 q 463 541 468 543 q 454 535 458 539 q 445 527 450 532 q 432 518 440 522 l 451 568 l 340 568 l 306 399 l 424 399 q 444 430 433 422 q 476 443 454 438 l 478 544 m 478 110 l 478 217 q 442 225 456 218 q 422 244 429 232 q 413 272 415 256 q 407 311 410 289 l 408 311 l 407 311 l 281 304 q 335 165 289 221 q 467 110 381 110 l 478 110 z "},"":{"ha":836,"x_min":93,"x_max":713,"o":"m 713 897 l 713 972 l 396 972 q 276 955 332 972 q 181 903 221 938 q 117 818 140 869 q 93 699 93 767 q 149 524 93 594 q 307 439 204 454 l 308 -229 l 388 -229 l 388 897 l 586 897 l 586 -229 l 665 -229 l 665 897 l 713 897 z "},"":{"ha":347,"x_min":51,"x_max":265,"o":"m 265 400 q 257 440 265 421 q 235 475 249 460 q 202 500 221 490 q 163 510 183 510 l 161 510 q 83 476 115 510 q 51 397 51 443 q 83 323 51 354 q 157 292 114 292 q 233 324 200 292 q 265 400 265 356 z "},"":{"ha":161,"x_min":-35,"x_max":165,"o":"m 165 -68 l -3 -67 l -4 -211 l 54 -211 l -35 -325 l 75 -328 l 164 -211 l 165 -68 z "},"":{"ha":1060,"x_min":60,"x_max":971,"o":"m 971 429 q 935 606 971 522 q 838 751 899 689 q 693 849 776 813 q 517 885 610 885 q 339 849 422 885 q 193 751 256 813 q 95 606 131 689 q 60 429 60 522 q 96 252 60 335 q 194 108 132 169 q 339 10 256 46 q 517 -26 422 -26 q 692 10 610 -26 q 837 108 775 46 q 935 252 899 169 q 971 429 971 335 m 733 651 l 721 642 l 711 629 l 700 642 l 689 651 l 700 663 l 711 674 l 721 663 l 733 651 m 344 651 l 332 642 l 322 629 l 311 642 l 300 651 l 311 663 l 322 674 l 332 663 l 344 651 m 919 429 q 888 273 919 346 q 801 145 856 200 q 673 58 746 90 q 517 26 600 26 q 360 58 433 26 q 231 144 286 90 q 144 272 176 199 q 113 429 113 346 q 148 595 113 518 q 244 728 183 672 l 244 621 l 376 621 l 376 742 l 261 742 q 377 808 313 785 q 515 832 442 832 l 515 833 q 653 809 588 833 q 771 742 718 785 l 632 742 l 632 621 l 772 621 l 772 739 q 880 603 840 683 q 919 429 919 522 m 582 99 l 582 742 l 436 742 l 436 99 l 582 99 z "},"":{"ha":651,"x_min":74,"x_max":549,"o":"m 549 301 l 549 476 l 338 654 l 336 482 l 449 389 l 338 292 l 338 117 l 549 301 m 289 304 l 286 472 l 75 653 l 75 483 l 186 388 l 74 289 l 74 115 l 289 304 z "},"":{"ha":1060,"x_min":60,"x_max":971,"o":"m 971 429 q 935 606 971 522 q 838 751 899 689 q 693 849 776 813 q 517 885 610 885 q 339 849 422 885 q 193 751 256 813 q 95 606 131 689 q 60 429 60 522 q 96 252 60 335 q 194 108 132 169 q 339 10 256 46 q 517 -26 422 -26 q 692 10 610 -26 q 837 108 775 46 q 935 252 899 169 q 971 429 971 335 m 919 429 q 888 273 919 346 q 801 145 856 200 q 673 58 746 90 q 517 26 600 26 q 360 58 433 26 q 231 144 286 90 q 144 272 176 199 q 113 429 113 346 q 144 585 113 513 q 230 713 175 658 q 358 800 285 768 q 515 832 432 832 l 515 833 q 672 801 599 833 q 800 715 744 769 q 888 586 856 660 q 919 429 919 513 m 742 453 q 737 561 742 507 q 713 659 732 615 q 656 731 693 703 q 554 761 618 758 l 554 651 q 576 644 565 649 q 596 633 586 640 q 618 596 613 619 q 623 545 624 572 q 619 491 622 518 q 617 443 617 464 q 619 383 617 421 q 617 310 621 346 q 599 249 613 275 q 554 222 585 222 l 554 111 q 663 153 625 121 q 718 231 700 185 q 739 335 736 278 q 742 453 742 392 m 476 113 l 476 222 q 454 228 465 225 q 433 239 443 232 q 406 281 414 254 q 398 338 399 307 q 399 398 397 368 q 401 451 401 428 q 401 511 401 479 q 406 571 400 543 q 428 620 413 599 q 476 650 443 642 l 476 758 q 376 728 414 757 q 315 656 338 700 q 285 558 293 613 q 278 451 278 504 q 283 335 278 394 q 307 228 288 276 q 366 149 326 181 q 476 113 406 117 z "},"":{"ha":1060,"x_min":60,"x_max":971,"o":"m 971 429 q 935 606 971 522 q 838 751 899 689 q 693 849 776 813 q 517 885 610 885 q 339 849 422 885 q 193 751 256 813 q 95 606 131 689 q 60 429 60 522 q 96 252 60 335 q 194 108 132 169 q 339 10 256 46 q 517 -26 422 -26 q 692 10 610 -26 q 837 108 775 46 q 935 252 899 169 q 971 429 971 335 m 919 429 q 888 273 919 346 q 801 145 856 200 q 673 58 746 90 q 517 26 600 26 q 360 58 433 26 q 231 144 286 90 q 144 272 176 199 q 113 429 113 346 q 144 585 113 513 q 230 713 175 658 q 358 800 285 768 q 515 832 432 832 l 515 833 q 672 801 599 833 q 800 715 744 769 q 888 586 856 660 q 919 429 919 513 m 718 583 q 553 771 718 758 l 553 653 q 588 625 583 646 q 593 572 593 604 q 567 496 593 532 q 503 428 540 460 q 424 369 465 397 q 354 318 383 342 l 528 319 q 599 374 565 349 q 660 428 633 400 q 702 494 686 457 q 718 583 718 531 m 481 654 l 481 772 q 398 749 431 765 q 345 705 365 732 q 315 640 325 678 q 301 553 306 603 q 300 536 300 547 l 428 531 q 426 574 428 553 q 428 611 425 594 q 444 639 432 628 q 481 654 456 650 m 731 136 l 731 250 l 300 250 l 300 136 l 731 136 z "},"":{"ha":1060,"x_min":60,"x_max":971,"o":"m 971 429 q 935 606 971 522 q 838 751 899 689 q 693 849 776 813 q 517 885 610 885 q 339 849 422 885 q 193 751 256 813 q 95 606 131 689 q 60 429 60 522 q 96 252 60 335 q 194 108 132 169 q 339 10 256 46 q 517 -26 422 -26 q 692 10 610 -26 q 837 108 775 46 q 935 252 899 169 q 971 429 971 335 m 919 429 q 888 273 919 346 q 801 145 856 200 q 673 58 746 90 q 517 26 600 26 q 360 58 433 26 q 231 144 286 90 q 144 272 176 199 q 113 429 113 346 q 144 585 113 513 q 230 713 175 658 q 358 800 285 768 q 515 832 432 832 l 515 833 q 672 801 599 833 q 800 715 744 769 q 888 586 856 660 q 919 429 919 513 m 478 651 l 478 757 q 343 699 382 746 q 306 551 304 653 l 307 549 l 428 542 q 427 581 428 563 q 430 613 426 599 q 444 636 433 626 q 478 651 454 646 m 738 313 q 730 359 738 333 q 709 406 722 385 q 676 442 696 428 q 632 457 657 457 q 692 510 672 481 q 711 589 711 540 q 667 712 711 675 q 547 756 624 749 l 547 650 q 583 626 578 643 q 588 578 588 610 q 576 543 588 557 q 549 520 565 529 q 512 507 532 511 q 474 503 492 503 q 469 503 469 501 q 469 503 469 503 q 465 504 469 503 l 465 397 q 486 400 476 400 q 506 400 496 400 q 573 379 542 400 q 606 318 604 358 q 597 252 606 281 q 547 218 588 224 l 547 111 q 686 167 635 115 q 738 313 738 219 m 479 110 l 479 218 q 438 232 451 221 q 420 260 425 243 q 415 297 415 276 q 415 343 415 319 l 293 338 q 303 247 293 288 q 335 176 313 206 q 392 128 357 146 q 479 110 428 111 z "},"":{"ha":804,"x_min":39,"x_max":735,"o":"m 464 771 l 464 974 l 260 974 l 260 771 l 464 771 m 735 311 l 538 311 q 531 247 535 276 q 515 197 526 218 q 481 163 503 176 q 421 149 458 150 l 419 147 l 419 -21 q 656 66 579 -11 q 735 311 733 143 m 460 686 l 272 686 q 257 610 274 643 q 215 547 240 576 q 158 491 189 518 q 101 431 128 464 q 57 359 75 399 q 39 267 39 319 q 52 165 39 213 q 92 81 65 118 q 160 18 119 43 q 253 -15 200 -7 q 292 -19 272 -18 q 331 -24 311 -21 l 331 149 q 260 188 279 154 q 240 274 240 221 q 255 335 240 310 q 292 380 269 360 q 342 420 315 400 q 394 467 369 440 q 436 533 418 494 q 458 628 454 571 q 460 657 460 643 q 460 686 460 671 z "},"":{"ha":943,"x_min":-7,"x_max":919,"o":"m 519 1058 l 490 1231 l 267 1231 l 390 1057 l 519 1058 m 919 0 l 578 972 l 328 972 l -7 0 l 240 0 l 422 621 q 440 690 433 656 q 454 758 447 724 q 497 569 465 661 q 556 385 528 478 l 447 383 l 394 208 l 611 208 l 675 0 l 919 0 z "},"":{"ha":943,"x_min":-7,"x_max":919,"o":"m 618 1232 l 393 1232 l 357 1061 l 489 1060 l 618 1232 m 919 0 l 578 972 l 328 972 l -7 0 l 240 0 l 422 621 q 440 690 433 656 q 454 758 447 724 q 497 569 465 661 q 556 385 528 478 l 447 383 l 394 208 l 611 208 l 675 0 l 919 0 z "},"":{"ha":943,"x_min":-7,"x_max":919,"o":"m 671 1057 l 554 1229 l 335 1229 l 215 1056 l 376 1056 l 443 1149 l 514 1057 l 671 1057 m 919 0 l 578 972 l 328 972 l -7 0 l 240 0 l 422 621 q 440 690 433 656 q 454 758 447 724 q 497 569 465 661 q 556 385 528 478 l 447 383 l 394 208 l 611 208 l 675 0 l 919 0 z "},"":{"ha":943,"x_min":-7,"x_max":919,"o":"m 663 1228 l 554 1228 q 542 1202 551 1208 q 514 1196 532 1196 q 433 1210 472 1196 q 350 1225 393 1225 q 292 1210 313 1225 q 259 1172 271 1196 q 242 1119 247 1149 q 232 1061 236 1090 l 336 1061 q 348 1081 339 1072 q 368 1089 357 1089 q 411 1084 390 1089 q 452 1074 432 1079 q 493 1063 472 1068 q 535 1058 514 1058 q 594 1074 569 1058 q 633 1114 618 1089 q 656 1169 649 1139 q 663 1228 663 1199 m 919 0 l 578 972 l 328 972 l -7 0 l 240 0 l 422 621 q 440 690 433 656 q 454 758 447 724 q 497 569 465 661 q 556 385 528 478 l 475 383 l 422 208 l 611 208 l 675 0 l 919 0 z "},"":{"ha":943,"x_min":-7,"x_max":919,"o":"m 706 1061 l 706 1235 l 524 1235 l 524 1061 l 706 1061 m 382 1063 l 382 1235 l 201 1235 l 201 1063 l 382 1063 m 919 0 l 578 972 l 328 972 l -7 0 l 240 0 l 422 621 q 440 690 433 656 q 454 758 447 724 q 497 569 465 661 q 556 385 528 478 l 461 383 l 408 208 l 611 208 l 675 0 l 919 0 z "},"":{"ha":943,"x_min":-7,"x_max":919,"o":"m 596 1165 q 585 1220 596 1194 q 553 1265 574 1246 q 508 1294 533 1283 q 453 1306 482 1306 q 399 1295 424 1306 q 355 1266 374 1285 q 325 1222 336 1247 q 314 1168 314 1197 q 324 1116 314 1142 q 351 1069 333 1090 q 392 1036 368 1049 q 443 1024 415 1024 q 501 1033 474 1024 q 550 1062 529 1043 q 583 1107 571 1081 q 596 1165 596 1133 m 514 1160 q 496 1121 514 1138 q 456 1104 478 1104 l 456 1106 q 415 1121 433 1106 q 396 1160 396 1136 l 396 1172 q 413 1208 396 1192 q 449 1224 429 1224 l 460 1224 q 499 1203 485 1224 q 514 1160 514 1183 m 919 0 l 578 972 l 328 972 l -7 0 l 240 0 l 422 621 q 440 690 433 656 q 454 758 447 724 q 497 569 465 661 q 556 385 528 478 l 447 383 l 394 208 l 611 208 l 675 0 l 919 0 z "},"":{"ha":1289,"x_min":-12,"x_max":1271,"o":"m 1268 788 l 1268 975 l 879 975 l 879 788 l 1268 788 m 1229 424 l 1229 599 l 879 599 l 879 424 l 1229 424 m 1271 0 l 1271 181 l 879 181 l 879 0 l 1271 0 m 775 0 l 775 975 l 421 975 l -12 0 l 219 0 l 561 817 l 561 379 l 485 379 l 415 210 l 561 210 l 561 0 l 775 0 z "},"":{"ha":990,"x_min":19,"x_max":939,"o":"m 924 675 q 872 813 907 756 q 785 908 836 871 q 667 965 733 946 q 522 988 600 983 l 522 808 q 639 765 593 801 q 703 658 685 729 l 924 675 m 939 324 l 708 339 q 650 214 699 258 q 522 161 601 169 l 524 161 l 524 -22 q 679 10 610 -11 q 801 70 749 31 q 888 171 853 110 q 939 324 922 232 m 489 -21 l 489 163 q 383 194 426 164 q 310 269 339 224 q 269 371 282 315 q 256 481 256 426 q 267 594 256 536 q 305 698 278 651 q 376 775 332 744 q 486 808 419 806 l 488 810 l 488 989 q 291 947 378 986 q 144 842 204 908 q 51 684 83 775 q 19 486 19 593 q 52 289 19 381 q 145 129 85 197 q 293 21 206 61 q 489 -21 381 -19 m 539 -68 l 372 -67 l 369 -211 l 426 -211 l 339 -325 l 447 -328 l 538 -211 l 539 -68 z "},"":{"ha":843,"x_min":47,"x_max":765,"o":"m 446 1058 l 415 1231 l 190 1231 l 317 1057 l 446 1058 m 756 793 l 756 974 l 371 974 l 371 793 l 756 793 m 719 425 l 719 600 l 371 600 l 371 425 l 719 425 m 765 0 l 765 181 l 371 181 l 371 0 l 765 0 m 264 0 l 264 974 l 47 974 l 47 0 l 264 0 z "},"":{"ha":843,"x_min":47,"x_max":765,"o":"m 544 1232 l 318 1232 l 283 1061 l 415 1060 l 544 1232 m 756 793 l 756 974 l 371 974 l 371 793 l 756 793 m 719 425 l 719 600 l 371 600 l 371 425 l 719 425 m 765 0 l 765 181 l 371 181 l 371 0 l 765 0 m 264 0 l 264 974 l 47 974 l 47 0 l 264 0 z "},"":{"ha":843,"x_min":47,"x_max":765,"o":"m 596 1057 l 481 1229 l 258 1229 l 140 1056 l 301 1056 l 368 1149 l 439 1057 l 596 1057 m 756 793 l 756 974 l 371 974 l 371 793 l 756 793 m 719 425 l 719 600 l 371 600 l 371 425 l 719 425 m 765 0 l 765 181 l 371 181 l 371 0 l 765 0 m 264 0 l 264 974 l 47 974 l 47 0 l 264 0 z "},"":{"ha":843,"x_min":47,"x_max":765,"o":"m 615 1058 l 615 1232 l 436 1232 l 436 1058 l 615 1058 m 756 793 l 756 974 l 371 974 l 371 793 l 756 793 m 292 1058 l 292 1231 l 114 1231 l 114 1058 l 292 1058 m 719 425 l 719 600 l 371 600 l 371 425 l 719 425 m 765 0 l 765 181 l 371 181 l 371 0 l 765 0 m 264 0 l 264 974 l 47 974 l 47 0 l 264 0 z "},"":{"ha":429,"x_min":49,"x_max":350,"o":"m 303 1058 l 274 1231 l 49 1231 l 172 1057 l 303 1058 m 350 0 l 350 972 l 132 972 l 132 0 l 350 0 z "},"":{"ha":428,"x_min":63,"x_max":333,"o":"m 333 1232 l 106 1232 l 71 1061 l 203 1060 l 333 1232 m 281 0 l 281 972 l 63 972 l 63 0 l 281 0 z "},"":{"ha":421,"x_min":-33,"x_max":424,"o":"m 424 1057 l 307 1229 l 88 1229 l -33 1056 l 128 1056 l 196 1149 l 267 1057 l 424 1057 m 319 0 l 319 972 l 101 972 l 101 0 l 319 0 z "},"":{"ha":415,"x_min":-58,"x_max":442,"o":"m 442 1058 l 442 1232 l 265 1232 l 265 1058 l 442 1058 m 118 1058 l 118 1231 l -58 1231 l -58 1058 l 118 1058 m 319 0 l 319 972 l 101 972 l 101 0 l 319 0 z "},"":{"ha":965,"x_min":71,"x_max":863,"o":"m 667 1228 l 560 1228 q 547 1202 557 1208 q 519 1196 538 1196 q 437 1210 476 1196 q 356 1225 397 1225 q 298 1210 321 1225 q 262 1171 275 1194 q 242 1118 249 1147 q 236 1060 236 1089 l 340 1061 q 352 1081 343 1072 q 374 1089 361 1089 q 415 1084 394 1089 q 456 1074 436 1079 q 497 1063 476 1068 q 539 1058 518 1058 q 601 1074 578 1058 q 636 1113 624 1089 q 655 1167 649 1138 q 667 1228 661 1197 m 861 72 l 861 972 l 642 972 l 651 422 l 861 72 m 863 0 l 279 971 l 74 971 l 654 0 l 863 0 m 289 0 l 279 554 l 71 906 l 71 0 l 289 0 z "},"":{"ha":1079,"x_min":43,"x_max":1004,"o":"m 585 1058 l 557 1231 l 332 1231 l 456 1057 l 585 1058 m 1004 490 q 901 845 1004 713 q 576 997 799 978 l 576 811 q 685 774 646 804 q 745 699 725 744 q 770 596 765 653 q 775 478 775 539 q 768 363 775 414 q 740 272 761 311 q 681 206 719 232 q 576 167 642 179 l 576 -18 l 601 -18 q 781 26 706 -18 q 906 141 857 69 q 980 303 956 213 q 1004 490 1004 394 m 471 168 q 365 210 404 182 q 306 278 326 238 q 278 373 285 319 q 272 490 272 426 q 279 603 272 549 q 308 701 286 657 q 368 774 329 744 q 471 811 407 804 l 471 813 l 471 997 q 282 954 363 994 q 149 846 201 914 q 69 686 96 778 q 43 490 43 594 q 62 320 43 403 q 121 169 81 238 q 225 53 161 101 q 379 -11 289 6 q 424 -16 401 -15 q 469 -17 446 -17 l 471 168 z "},"":{"ha":1079,"x_min":43,"x_max":1004,"o":"m 685 1232 l 458 1232 l 424 1061 l 556 1060 l 685 1232 m 1004 490 q 901 845 1004 713 q 576 997 799 978 l 576 811 q 685 774 646 804 q 745 699 725 744 q 770 596 765 653 q 775 478 775 539 q 768 363 775 414 q 740 272 761 311 q 681 206 719 232 q 576 167 642 179 l 576 -18 l 601 -18 q 781 26 706 -18 q 906 141 857 69 q 980 303 956 213 q 1004 490 1004 394 m 471 168 q 365 210 404 182 q 306 278 326 238 q 278 373 285 319 q 272 490 272 426 q 279 603 272 549 q 308 701 286 657 q 368 774 329 744 q 471 811 407 804 l 471 813 l 471 997 q 282 954 363 994 q 149 846 201 914 q 69 686 96 778 q 43 490 43 594 q 62 320 43 403 q 121 169 81 238 q 225 53 161 101 q 379 -11 289 6 q 424 -16 401 -15 q 469 -17 446 -17 l 471 168 z "},"":{"ha":1079,"x_min":43,"x_max":1004,"o":"m 736 1057 l 619 1229 l 401 1229 l 279 1056 l 442 1056 l 508 1149 l 578 1057 l 736 1057 m 1004 490 q 901 845 1004 713 q 576 997 799 978 l 576 811 q 685 774 646 804 q 745 699 725 744 q 770 596 765 653 q 775 478 775 539 q 768 363 775 414 q 740 272 761 311 q 681 206 719 232 q 576 167 642 179 l 576 -18 l 601 -18 q 781 26 706 -18 q 906 141 857 69 q 980 303 956 213 q 1004 490 1004 394 m 471 168 q 365 210 404 182 q 306 278 326 238 q 278 373 285 319 q 272 490 272 426 q 279 603 272 549 q 308 701 286 657 q 368 774 329 744 q 471 811 407 804 l 471 813 l 471 997 q 282 954 363 994 q 149 846 201 914 q 69 686 96 778 q 43 490 43 594 q 62 320 43 403 q 121 169 81 238 q 225 53 161 101 q 379 -11 289 6 q 424 -16 401 -15 q 469 -17 446 -17 l 471 168 z "},"":{"ha":1076,"x_min":43,"x_max":1004,"o":"m 729 1228 l 621 1228 q 608 1202 618 1208 q 581 1196 599 1196 q 499 1210 539 1196 q 418 1225 460 1225 l 417 1225 q 358 1210 379 1225 q 326 1172 338 1196 q 308 1119 314 1149 q 299 1061 303 1090 l 404 1061 q 416 1081 407 1072 q 436 1089 425 1089 q 478 1084 457 1089 q 519 1074 499 1079 q 560 1063 539 1068 q 601 1058 581 1058 q 660 1074 636 1058 q 700 1113 685 1089 q 722 1168 715 1138 q 729 1228 729 1199 m 1004 490 q 898 845 1004 713 q 569 997 792 978 l 569 811 q 680 774 639 804 q 742 699 721 744 q 769 596 763 653 q 775 478 775 539 q 767 363 775 414 q 738 272 760 311 q 675 206 715 232 q 569 167 635 179 l 569 -18 l 594 -18 q 775 26 699 -18 q 903 141 851 69 q 979 303 954 213 q 1004 490 1004 394 m 478 168 q 371 210 411 182 q 309 278 331 238 q 280 373 288 319 q 272 490 272 426 q 281 603 272 549 q 312 701 289 657 q 374 774 335 744 q 478 811 414 804 l 478 813 l 478 997 q 288 954 369 994 q 152 846 207 914 q 70 686 97 778 q 43 490 43 594 q 63 320 43 403 q 124 169 82 238 q 231 53 165 101 q 386 -11 296 6 q 431 -16 408 -15 q 476 -17 453 -17 l 478 168 z "},"":{"ha":1078,"x_min":43,"x_max":1004,"o":"m 772 1061 l 772 1232 l 594 1232 l 594 1061 l 772 1061 m 450 1061 l 450 1232 l 272 1232 l 272 1061 l 450 1061 m 1004 490 q 898 845 1004 713 q 569 997 792 978 l 569 811 q 680 774 639 804 q 742 699 721 744 q 769 596 763 653 q 775 478 775 539 q 767 363 775 414 q 738 272 760 311 q 675 206 715 232 q 569 167 635 179 l 569 -18 l 594 -18 q 775 26 699 -18 q 903 141 851 69 q 979 303 954 213 q 1004 490 1004 394 m 478 168 q 371 210 411 182 q 309 278 331 238 q 280 373 288 319 q 272 490 272 426 q 281 603 272 549 q 312 701 289 657 q 374 774 335 744 q 478 811 414 804 l 478 813 l 478 997 q 288 954 369 994 q 152 846 207 914 q 70 686 97 778 q 43 490 43 594 q 63 320 43 403 q 124 169 82 238 q 231 53 165 101 q 386 -11 296 6 q 431 -16 408 -15 q 476 -17 453 -17 l 478 168 z "},"":{"ha":1060,"x_min":60,"x_max":971,"o":"m 971 429 q 935 606 971 522 q 838 751 899 689 q 693 849 776 813 q 517 885 610 885 q 339 849 422 885 q 193 751 256 813 q 95 606 131 689 q 60 429 60 522 q 96 252 60 335 q 194 108 132 169 q 339 10 256 46 q 517 -26 422 -26 q 692 10 610 -26 q 837 108 775 46 q 935 252 899 169 q 971 429 971 335 m 919 429 q 888 273 919 346 q 801 145 856 200 q 673 58 746 90 q 517 26 600 26 q 360 58 433 26 q 231 144 286 90 q 144 272 176 199 q 113 429 113 346 q 144 585 113 513 q 230 713 175 658 q 358 800 285 768 q 515 832 432 832 l 515 833 q 672 801 599 833 q 800 715 744 769 q 888 586 856 660 q 919 429 919 513 m 736 313 q 717 397 738 365 q 653 457 696 429 q 683 477 669 463 q 704 509 696 492 q 717 546 713 526 q 721 582 721 565 q 706 659 721 628 q 665 711 690 690 q 603 742 639 732 q 528 757 568 753 l 528 653 q 580 632 560 647 q 600 578 600 617 q 572 515 600 533 q 503 496 543 496 q 444 517 467 496 q 421 575 421 539 q 432 628 421 610 q 475 653 443 646 l 475 757 q 351 708 401 751 q 301 583 301 665 q 317 510 301 540 q 368 456 332 479 q 304 395 325 425 q 283 311 283 365 q 334 164 283 214 q 476 111 385 114 l 476 217 q 403 307 403 222 q 433 379 403 353 q 507 406 463 406 q 586 381 556 406 q 617 306 617 357 q 591 244 617 267 q 529 217 565 221 l 529 110 q 613 128 575 114 q 678 166 650 142 q 721 226 706 190 q 736 313 736 263 z "},"":{"ha":1085,"x_min":46,"x_max":1008,"o":"m 1008 482 q 1001 576 1008 525 q 978 678 993 628 q 938 774 963 729 q 879 847 914 818 l 979 968 l 907 1025 l 813 908 q 753 944 781 929 q 699 969 726 960 q 641 985 671 979 q 574 993 611 990 l 574 808 q 633 792 611 807 q 683 750 656 778 l 313 301 q 285 389 293 346 q 276 481 276 432 q 285 592 276 533 q 316 698 293 650 q 378 777 339 746 q 481 808 418 808 l 482 808 l 482 994 q 154 847 263 976 q 46 496 46 718 q 53 392 46 439 q 74 301 60 344 q 113 215 89 257 q 171 128 138 174 l 82 17 l 149 -39 l 238 67 q 351 0 293 19 q 481 -21 410 -19 l 482 165 q 447 171 463 167 q 419 183 432 175 q 394 201 407 190 q 368 225 382 213 l 740 678 q 769 578 758 628 q 779 475 779 528 q 771 363 779 415 q 740 269 763 310 q 676 201 717 228 q 571 165 635 174 l 572 -21 q 600 -17 593 -18 q 628 -14 607 -17 q 715 11 671 -8 q 800 60 760 31 q 875 124 840 89 q 933 196 910 160 q 991 333 974 260 q 1008 482 1008 407 z "},"":{"ha":943,"x_min":67,"x_max":847,"o":"m 518 1058 l 489 1231 l 265 1231 l 389 1057 l 518 1058 m 847 369 l 847 969 l 626 969 l 626 382 q 628 302 626 340 q 620 234 629 264 q 586 186 611 204 q 510 167 561 168 l 510 165 l 510 -21 q 679 6 614 -17 q 782 76 744 29 q 833 194 819 122 q 847 369 847 267 m 407 -24 l 406 163 q 335 183 360 168 q 300 222 311 199 q 288 279 289 246 q 286 356 286 313 l 286 969 l 67 969 l 67 354 q 83 185 67 256 q 139 68 100 114 q 243 0 178 22 q 407 -24 308 -22 z "},"":{"ha":943,"x_min":67,"x_max":847,"o":"m 617 1232 l 392 1232 l 356 1061 l 488 1060 l 617 1232 m 847 369 l 847 969 l 626 969 l 626 382 q 628 302 626 340 q 620 234 629 264 q 586 186 611 204 q 510 167 561 168 l 510 165 l 510 -21 q 679 6 614 -17 q 782 76 744 29 q 833 194 819 122 q 847 369 847 267 m 407 -24 l 406 163 q 335 183 360 168 q 300 222 311 199 q 288 279 289 246 q 286 356 286 313 l 286 969 l 67 969 l 67 354 q 83 185 67 256 q 139 68 100 114 q 243 0 178 22 q 407 -24 308 -22 z "},"":{"ha":943,"x_min":67,"x_max":847,"o":"m 669 1057 l 553 1229 l 333 1229 l 214 1056 l 375 1056 l 442 1149 l 513 1057 l 669 1057 m 847 369 l 847 969 l 626 969 l 626 382 q 628 302 626 340 q 620 234 629 264 q 586 186 611 204 q 510 167 561 168 l 510 165 l 510 -21 q 679 6 614 -17 q 782 76 744 29 q 833 194 819 122 q 847 369 847 267 m 407 -24 l 406 163 q 335 183 360 168 q 300 222 311 199 q 288 279 289 246 q 286 356 286 313 l 286 969 l 67 969 l 67 354 q 83 185 67 256 q 139 68 100 114 q 243 0 178 22 q 407 -24 308 -22 z "},"":{"ha":943,"x_min":67,"x_max":847,"o":"m 708 1058 l 708 1232 l 526 1232 l 526 1058 l 708 1058 m 383 1058 l 383 1231 l 204 1231 l 204 1058 l 383 1058 m 847 369 l 847 969 l 626 969 l 626 382 q 626 301 626 340 q 616 234 626 264 q 580 186 606 204 q 503 167 554 168 l 503 165 l 503 -21 q 674 6 607 -17 q 778 76 740 29 q 832 194 817 122 q 847 369 847 267 m 414 -24 l 413 163 q 342 183 367 168 q 304 222 317 199 q 289 279 292 246 q 286 356 286 313 l 286 969 l 67 969 l 67 354 q 84 185 67 256 q 142 68 101 114 q 249 0 183 22 q 414 -24 315 -22 z "},"":{"ha":1060,"x_min":60,"x_max":971,"o":"m 971 429 q 935 606 971 522 q 838 751 899 689 q 693 849 776 813 q 517 885 610 885 q 339 849 422 885 q 193 751 256 813 q 95 606 131 689 q 60 429 60 522 q 96 252 60 335 q 194 108 132 169 q 339 10 256 46 q 517 -26 422 -26 q 692 10 610 -26 q 837 108 775 46 q 935 252 899 169 q 971 429 971 335 m 919 429 q 888 273 919 346 q 801 145 856 200 q 673 58 746 90 q 517 26 600 26 q 360 58 433 26 q 231 144 286 90 q 144 272 176 199 q 113 429 113 346 q 144 585 113 513 q 230 713 175 658 q 358 800 285 768 q 515 832 432 832 l 515 833 q 672 801 599 833 q 800 715 744 769 q 888 586 856 660 q 919 429 919 513 m 710 590 q 661 710 699 665 q 547 756 624 756 l 536 756 l 536 653 q 564 646 554 650 q 578 635 574 642 q 585 616 583 628 q 590 585 588 604 l 710 590 m 721 343 q 707 424 721 386 q 668 490 693 463 q 607 535 643 518 q 526 551 571 551 q 451 535 483 551 q 389 488 418 519 q 394 539 392 513 q 402 588 396 565 q 423 626 408 610 q 467 650 438 643 l 467 754 q 363 715 401 746 q 303 640 324 685 q 277 542 283 596 q 271 429 271 488 q 274 328 271 379 q 293 233 278 276 q 341 157 308 189 q 432 115 374 125 q 449 113 440 114 q 467 111 457 113 l 467 219 q 413 256 425 226 q 400 328 400 286 q 426 410 400 376 q 504 444 451 444 q 577 412 553 444 q 601 333 601 379 q 590 259 601 292 q 538 219 579 226 l 536 111 q 678 182 636 122 q 721 343 721 242 z "},"":{"ha":1060,"x_min":60,"x_max":971,"o":"m 971 429 q 935 606 971 522 q 838 751 899 689 q 693 849 776 813 q 517 885 610 885 q 339 849 422 885 q 193 751 256 813 q 95 606 131 689 q 60 429 60 522 q 96 252 60 335 q 194 108 132 169 q 339 10 256 46 q 517 -26 422 -26 q 692 10 610 -26 q 837 108 775 46 q 935 252 899 169 q 971 429 971 335 m 919 429 q 888 273 919 346 q 801 145 856 200 q 673 58 746 90 q 517 26 600 26 q 360 58 433 26 q 231 144 286 90 q 144 272 176 199 q 113 429 113 346 q 144 585 113 513 q 230 713 175 658 q 358 800 285 768 q 515 832 432 832 l 515 833 q 672 801 599 833 q 800 715 744 769 q 888 586 856 660 q 919 429 919 513 m 731 628 l 731 743 l 317 743 l 317 628 l 731 628 m 707 560 l 576 558 q 533 500 553 533 q 475 403 499 446 q 435 319 451 361 q 408 231 418 278 q 393 119 399 183 l 533 119 q 576 356 533 243 q 707 560 619 468 z "},"":{"ha":863,"x_min":65,"x_max":768,"o":"m 768 292 q 759 381 768 342 q 731 451 750 419 q 681 508 711 482 q 608 558 650 535 q 691 637 663 592 q 719 749 719 682 q 697 860 719 813 q 635 937 674 907 q 544 981 596 967 q 436 996 493 996 l 436 831 q 499 795 482 824 q 517 718 515 767 q 480 640 517 665 q 394 614 443 614 q 375 614 378 614 q 358 615 374 614 l 360 472 q 369 474 367 474 q 374 476 372 475 q 379 476 376 476 q 389 476 382 476 q 514 442 464 476 q 564 324 564 407 q 556 256 564 288 q 531 199 549 224 q 485 160 514 175 q 417 146 457 146 q 399 146 406 146 q 388 147 393 146 q 376 148 382 147 q 358 150 369 149 l 358 -4 q 408 -15 389 -11 q 458 -19 426 -19 q 686 63 606 -19 q 768 292 767 144 m 346 994 q 215 969 268 988 q 128 915 161 951 q 80 822 94 878 q 65 683 65 765 l 65 0 l 274 0 l 274 669 q 272 725 274 699 q 276 773 271 751 q 296 809 281 794 q 344 831 311 824 l 346 994 z "},"":{"ha":803,"x_min":32,"x_max":742,"o":"m 471 833 l 404 1036 l 167 1036 l 335 833 l 471 833 m 742 0 q 720 107 725 53 q 715 215 715 161 q 717 317 715 267 q 719 417 719 367 q 703 572 719 507 q 649 679 688 638 q 548 741 611 721 q 392 761 485 761 l 392 763 q 292 752 343 763 q 198 718 242 742 q 123 657 154 694 q 81 565 92 619 q 76 535 78 550 q 72 504 75 519 l 269 504 q 307 576 271 553 q 388 599 343 599 q 473 578 440 599 q 506 499 506 557 l 506 111 q 519 0 506 51 l 742 0 m 419 -15 q 415 34 417 3 q 413 83 413 65 q 413 126 413 106 q 414 168 413 147 q 391 155 397 160 q 381 147 385 150 q 369 144 376 144 q 342 143 363 143 q 277 163 308 143 q 246 219 246 182 q 263 273 246 254 q 306 301 281 292 q 360 315 331 311 q 414 322 389 318 l 414 468 q 394 465 400 465 q 385 465 389 465 q 376 465 382 465 q 357 461 371 464 q 240 438 299 450 q 136 401 182 426 q 61 333 90 376 q 32 214 32 289 q 52 115 32 158 q 107 40 72 71 q 189 -8 142 8 q 289 -25 236 -25 q 330 -28 315 -25 q 357 -33 344 -32 q 383 -31 369 -33 q 419 -15 396 -28 z "},"":{"ha":803,"x_min":32,"x_max":742,"o":"m 579 1038 l 354 1038 l 292 835 l 426 835 l 579 1038 m 742 0 q 720 107 725 53 q 715 215 715 161 q 717 317 715 267 q 719 417 719 367 q 703 572 719 507 q 649 679 688 638 q 548 741 611 721 q 392 761 485 761 l 392 763 q 292 752 343 763 q 198 718 242 742 q 123 657 154 694 q 81 565 92 619 q 76 535 78 550 q 72 504 75 519 l 269 504 q 307 576 271 553 q 388 599 343 599 q 473 578 440 599 q 506 499 506 557 l 506 111 q 519 0 506 51 l 742 0 m 419 13 q 413 83 413 51 q 413 126 413 106 q 414 168 413 147 q 391 155 397 160 q 381 147 385 150 q 369 144 376 144 q 342 143 363 143 q 277 163 308 143 q 246 219 246 182 q 263 273 246 254 q 306 301 281 292 q 360 315 331 311 q 414 322 389 318 l 414 468 q 394 465 400 465 q 385 465 389 465 q 376 465 382 465 q 357 461 371 464 q 240 438 299 450 q 136 401 182 426 q 61 333 90 376 q 32 214 32 289 q 52 115 32 158 q 107 40 72 71 q 189 -8 142 8 q 289 -25 236 -25 q 330 -24 315 -25 q 357 -19 344 -22 q 383 -8 369 -15 q 419 13 396 0 z "},"":{"ha":815,"x_min":38,"x_max":747,"o":"m 610 826 l 486 1035 l 292 1035 l 158 826 l 317 826 l 388 942 l 454 826 l 610 826 m 747 0 q 726 107 731 53 q 721 215 721 161 q 723 317 721 267 q 725 417 725 367 q 709 572 725 507 q 655 679 693 638 q 553 741 617 721 q 397 761 490 761 l 397 763 q 298 752 349 763 q 203 718 247 742 q 128 657 160 694 q 86 565 97 619 q 82 535 83 550 q 78 504 81 519 l 275 504 q 313 576 276 553 q 393 599 349 599 q 478 578 446 599 q 511 499 511 557 l 511 111 q 525 0 511 51 l 747 0 m 425 13 q 418 83 418 51 q 418 126 418 106 q 419 168 418 147 q 397 155 403 160 q 386 147 390 150 q 375 144 382 144 q 347 143 368 143 q 283 163 314 143 q 251 219 251 182 q 269 273 251 254 q 311 301 286 292 q 365 315 336 311 q 419 322 394 318 l 419 468 q 400 465 406 465 q 390 465 394 465 q 382 465 388 465 q 363 461 376 464 q 246 438 304 450 q 142 401 188 426 q 67 333 96 376 q 38 214 38 289 q 58 115 38 158 q 113 40 78 71 q 194 -8 147 8 q 294 -25 242 -25 q 335 -24 321 -25 q 363 -19 350 -22 q 388 -8 375 -15 q 425 13 401 0 z "},"":{"ha":815,"x_min":38,"x_max":747,"o":"m 599 971 l 599 997 q 599 1014 599 1006 q 597 1033 599 1024 l 597 1032 l 507 1032 q 497 994 504 1013 q 465 976 489 976 q 428 985 449 976 q 387 1006 408 994 q 342 1026 365 1017 q 297 1035 319 1035 q 239 1020 261 1035 q 204 983 217 1006 q 188 931 192 960 q 183 872 183 901 q 183 850 183 861 q 186 828 183 839 l 282 829 q 289 869 279 850 q 324 888 299 888 q 365 878 343 888 q 409 858 386 869 q 456 838 432 847 q 504 828 481 828 q 553 840 535 828 q 583 874 572 853 q 596 920 593 894 q 599 971 599 946 m 747 1 q 726 108 731 54 q 721 217 721 163 q 723 318 721 268 q 725 418 725 368 q 709 574 725 508 q 655 681 693 639 q 553 742 617 722 q 397 763 490 763 l 397 764 q 298 753 349 764 q 203 719 247 743 q 128 658 160 696 q 86 567 97 621 q 82 536 83 551 q 78 506 81 521 l 275 506 q 313 577 276 554 q 393 600 349 600 q 478 579 446 600 q 511 500 511 558 l 511 113 q 525 1 511 53 l 747 1 m 425 0 q 424 13 425 1 q 420 42 422 25 q 418 71 418 60 q 418 114 418 93 q 419 156 418 135 q 397 144 403 147 q 388 142 392 142 q 376 143 383 142 q 347 144 368 144 q 283 164 314 144 q 251 221 251 183 q 269 272 251 256 q 311 296 286 289 q 365 304 336 303 q 419 310 394 306 l 419 456 q 406 458 418 456 q 378 461 393 460 q 363 463 364 463 q 248 440 306 451 q 143 403 190 428 q 67 334 96 378 q 38 215 38 290 q 58 116 38 160 q 113 41 78 72 q 194 -7 147 10 q 294 -24 242 -24 q 359 -17 328 -24 q 406 -6 390 -11 q 425 0 422 -1 z "},"":{"ha":818,"x_min":39,"x_max":749,"o":"m 686 804 l 686 975 l 497 975 l 497 804 l 686 804 m 385 804 l 385 974 l 194 974 l 194 804 l 385 804 m 749 0 q 727 107 732 53 q 722 215 722 161 q 724 317 722 267 q 726 417 726 367 q 710 572 726 507 q 656 679 694 638 q 555 741 618 721 q 399 761 492 761 l 399 763 q 299 752 350 763 q 205 718 249 742 q 130 657 161 694 q 88 565 99 619 q 83 535 85 550 q 79 504 82 519 l 275 504 q 319 578 286 558 q 404 599 351 597 q 482 577 453 599 q 511 503 511 556 l 513 111 q 526 0 513 51 l 749 0 m 426 13 q 421 57 422 35 q 419 103 419 79 q 420 136 419 119 q 422 169 421 153 q 398 155 404 160 q 388 147 392 150 q 376 144 383 144 q 349 143 369 143 q 284 163 315 143 q 253 219 253 182 q 270 273 253 254 q 313 301 288 292 q 367 315 338 311 q 421 322 396 318 l 421 468 q 401 465 407 465 q 392 465 396 465 q 383 465 389 465 q 364 461 378 464 q 247 438 306 450 q 143 401 189 426 q 68 333 97 376 q 39 214 39 289 q 59 115 39 158 q 114 40 79 71 q 196 -8 149 8 q 296 -25 243 -25 q 337 -24 322 -25 q 364 -19 351 -22 q 390 -8 376 -15 q 426 13 403 0 z "},"":{"ha":822,"x_min":40,"x_max":750,"o":"m 569 925 q 533 1024 569 983 q 438 1065 497 1065 l 436 1065 q 384 1055 408 1065 q 341 1027 360 1044 q 311 985 322 1010 q 300 932 300 961 q 338 839 300 876 q 432 800 375 801 q 483 809 458 800 q 528 834 508 818 q 558 873 547 850 q 569 925 569 896 m 488 935 q 474 898 485 915 q 439 881 463 881 l 438 879 q 400 892 417 879 q 383 929 383 906 q 401 967 383 953 q 442 983 418 982 q 472 968 463 983 q 488 935 482 953 m 750 1 q 728 108 733 54 q 724 217 724 163 q 726 318 724 268 q 728 418 728 368 q 712 574 728 508 q 658 681 696 639 q 556 742 619 722 q 400 763 493 763 l 400 764 q 301 753 351 764 q 206 719 250 743 q 131 658 163 696 q 89 567 100 621 q 85 536 86 551 q 81 506 83 521 l 278 506 q 315 577 279 554 q 396 600 351 600 q 481 579 449 600 q 514 500 514 558 l 514 113 q 528 1 514 53 l 750 1 m 442 14 q 440 26 442 15 q 437 53 439 38 q 435 81 435 69 q 435 124 435 103 q 436 168 435 146 q 411 155 419 160 q 395 147 403 150 q 378 144 388 144 q 349 143 368 143 q 283 163 313 143 q 253 222 253 183 q 273 274 253 256 q 321 302 293 292 q 380 316 349 313 q 435 324 411 319 l 435 469 q 413 467 421 467 q 399 467 406 467 q 385 466 393 467 q 364 463 378 465 q 248 440 306 451 q 144 403 190 428 q 69 334 99 378 q 40 215 40 290 q 60 116 40 160 q 115 41 81 72 q 197 -7 150 10 q 297 -24 244 -24 q 365 -14 331 -24 q 419 4 400 -4 q 442 14 439 13 z "},"":{"ha":1322,"x_min":28,"x_max":1265,"o":"m 1265 314 q 1263 385 1264 350 q 1254 457 1261 421 q 1134 685 1225 601 q 892 769 1043 769 q 763 748 825 769 q 650 686 701 726 q 597 724 628 708 q 531 749 565 740 q 460 763 496 758 q 394 767 425 767 l 393 767 q 267 754 322 767 q 172 712 213 742 q 103 633 131 682 q 63 513 76 585 l 260 513 q 306 582 271 563 q 389 601 340 601 q 456 590 431 601 q 496 559 482 579 q 514 510 510 539 q 518 444 518 481 q 518 382 518 413 q 521 321 518 351 q 635 67 536 153 q 901 -19 735 -19 q 1108 35 1028 -19 q 1247 199 1188 89 q 1253 209 1250 204 q 1258 219 1256 214 l 1040 233 q 983 175 1022 194 q 903 156 944 156 q 819 174 853 156 q 766 224 786 193 q 737 296 746 256 q 728 379 728 336 q 735 464 728 424 q 761 535 742 504 q 814 585 781 567 q 899 604 847 604 q 996 568 958 604 q 1043 474 1033 532 l 842 475 q 835 439 836 457 q 833 401 833 421 q 833 357 833 379 q 836 314 833 336 l 1265 314 m 529 42 l 446 196 q 439 183 446 194 q 411 157 432 171 q 356 143 390 143 q 277 162 313 143 q 242 229 242 181 q 253 277 242 260 q 281 303 264 294 q 321 313 299 311 q 365 314 343 314 q 397 313 381 314 q 428 313 413 313 l 429 313 l 429 468 l 383 468 q 256 463 319 468 q 141 435 192 458 q 59 365 90 413 q 28 232 28 317 q 50 119 28 167 q 111 40 72 71 q 203 -7 150 8 q 317 -22 256 -22 q 394 -12 356 -22 q 462 10 432 -3 q 510 32 492 22 q 529 42 529 42 z "},"":{"ha":881,"x_min":38,"x_max":813,"o":"m 807 488 q 797 533 801 511 q 783 578 792 556 q 734 661 765 626 q 663 719 703 696 q 577 753 624 742 q 482 769 531 765 l 482 596 q 563 558 538 585 q 599 478 588 531 l 807 488 m 813 278 l 604 286 q 565 201 592 233 q 482 158 539 168 l 482 -19 q 706 64 629 -8 q 813 278 782 136 m 393 -21 l 393 160 q 325 192 351 171 q 284 242 299 214 q 264 306 269 271 q 258 381 258 342 q 264 451 258 415 q 285 516 269 486 q 326 567 300 546 q 392 594 351 589 l 393 594 l 393 768 q 239 731 306 763 q 128 646 172 699 q 60 522 83 593 q 38 367 38 451 q 128 92 38 194 q 393 -21 218 -10 m 510 -68 l 342 -67 l 340 -211 l 397 -211 l 310 -325 l 419 -328 l 508 -211 l 510 -68 z "},"":{"ha":858,"x_min":42,"x_max":786,"o":"m 482 833 l 415 1036 l 179 1036 l 347 833 l 482 833 m 786 311 l 786 343 q 764 508 786 431 q 697 642 742 585 q 582 733 651 700 q 418 767 513 767 q 261 735 331 767 q 143 650 192 704 q 68 523 94 596 q 42 365 42 450 q 67 208 42 279 q 142 85 93 136 q 260 7 190 35 q 418 -21 331 -21 q 542 -7 489 -21 q 638 35 596 7 q 715 109 681 64 q 778 217 749 154 l 564 232 q 508 172 540 193 q 429 151 475 151 q 347 171 381 151 q 293 222 314 190 q 263 294 272 253 q 254 376 254 335 q 262 457 254 417 q 288 529 269 497 q 339 581 307 561 q 418 601 371 601 q 518 566 483 601 q 565 471 553 531 l 372 471 q 365 431 368 451 q 361 392 361 411 q 363 351 361 371 q 368 311 365 331 l 786 311 z "},"":{"ha":858,"x_min":42,"x_max":786,"o":"m 593 1038 l 368 1038 l 306 835 l 440 835 l 593 1038 m 786 311 l 786 343 q 764 508 786 431 q 697 642 742 585 q 582 733 651 700 q 418 767 513 767 q 261 735 331 767 q 143 650 192 704 q 68 523 94 596 q 42 365 42 450 q 67 208 42 279 q 142 85 93 136 q 260 7 190 35 q 418 -21 331 -21 q 542 -7 489 -21 q 638 35 596 7 q 715 109 681 64 q 778 217 749 154 l 564 232 q 508 172 540 193 q 429 151 475 151 q 347 171 381 151 q 293 222 314 190 q 263 294 272 253 q 254 376 254 335 q 262 457 254 417 q 288 529 269 497 q 339 581 307 561 q 418 601 371 601 q 518 566 483 601 q 565 471 553 531 l 372 471 q 365 431 368 451 q 361 392 361 411 q 363 351 361 371 q 368 311 365 331 l 786 311 z "},"":{"ha":858,"x_min":42,"x_max":786,"o":"m 617 826 l 494 1035 l 299 1035 l 167 826 l 325 826 l 394 942 l 463 826 l 617 826 m 786 311 l 786 343 q 764 508 786 431 q 697 642 742 585 q 582 733 651 700 q 418 767 513 767 q 261 735 331 767 q 143 650 192 704 q 68 523 94 596 q 42 365 42 450 q 67 208 42 279 q 142 85 93 136 q 260 7 190 35 q 418 -21 331 -21 q 542 -7 489 -21 q 638 35 596 7 q 715 109 681 64 q 778 217 749 154 l 564 232 q 508 172 540 193 q 429 151 475 151 q 347 171 381 151 q 293 222 314 190 q 263 294 272 253 q 254 376 254 335 q 262 457 254 417 q 288 529 269 497 q 339 581 307 561 q 418 601 371 601 q 518 566 483 601 q 565 471 553 531 l 372 471 q 365 431 368 451 q 361 392 361 411 q 363 351 361 371 q 368 311 365 331 l 786 311 z "},"":{"ha":858,"x_min":42,"x_max":786,"o":"m 640 832 l 640 1003 l 451 1003 l 451 832 l 640 832 m 340 832 l 340 1003 l 149 1003 l 149 832 l 340 832 m 786 311 l 786 343 q 764 508 786 431 q 697 642 742 585 q 582 733 651 700 q 418 767 513 767 q 261 735 331 767 q 143 650 192 704 q 68 523 94 596 q 42 365 42 450 q 67 208 42 279 q 142 85 93 136 q 260 7 190 35 q 418 -21 331 -21 q 542 -7 489 -21 q 638 35 596 7 q 715 109 681 64 q 778 217 749 154 l 564 232 q 508 172 540 193 q 429 151 475 151 q 347 171 381 151 q 293 222 314 190 q 263 294 272 253 q 254 376 254 335 q 262 457 254 417 q 288 529 269 497 q 339 581 307 561 q 418 601 371 601 q 518 566 483 601 q 565 471 553 531 l 358 471 q 351 431 354 451 q 347 392 347 411 q 349 351 347 371 q 354 311 351 331 l 786 311 z "},"":{"ha":415,"x_min":24,"x_max":360,"o":"m 328 833 l 261 1036 l 24 1036 l 192 833 l 328 833 m 360 0 l 360 746 l 147 746 l 147 0 l 360 0 z "},"":{"ha":418,"x_min":47,"x_max":339,"o":"m 339 1038 l 114 1038 l 50 835 l 186 835 l 339 1038 m 260 0 l 260 746 l 47 746 l 47 0 l 260 0 z "},"":{"ha":465,"x_min":-7,"x_max":442,"o":"m 442 826 l 321 1035 l 126 1035 l -7 826 l 150 826 l 221 942 l 289 826 l 442 826 m 340 0 l 340 746 l 129 746 l 129 0 l 340 0 z "},"":{"ha":482,"x_min":-18,"x_max":471,"o":"m 471 832 l 471 1003 l 285 1003 l 285 832 l 471 832 m 171 832 l 171 1003 l -18 1003 l -18 832 l 171 832 m 346 0 l 346 746 l 135 746 l 135 0 l 346 0 z "},"":{"ha":843,"x_min":68,"x_max":746,"o":"m 601 971 l 601 1032 l 508 1032 q 500 994 510 1013 q 468 976 490 976 q 431 985 451 976 q 390 1006 411 994 q 346 1026 368 1017 q 301 1035 324 1035 q 246 1021 268 1035 q 210 985 224 1007 q 192 937 197 964 q 186 881 186 910 q 187 855 186 868 q 189 828 188 842 l 286 829 q 292 869 285 850 q 326 888 300 888 q 369 878 347 888 q 413 858 390 869 q 460 838 436 847 q 507 828 483 828 q 558 840 539 828 q 586 874 576 853 q 599 920 596 894 q 601 971 601 946 m 746 0 l 746 458 q 733 567 746 514 q 691 663 719 621 q 618 731 663 706 q 510 757 574 757 q 444 748 472 757 q 405 731 417 739 q 392 722 393 724 l 390 722 l 390 568 q 389 558 388 563 q 390 554 390 554 l 390 568 q 400 574 393 571 q 422 578 407 578 q 504 538 478 578 q 531 447 531 497 l 531 0 l 746 0 m 282 0 l 282 744 l 68 744 l 68 0 l 282 0 z "},"":{"ha":892,"x_min":43,"x_max":817,"o":"m 501 833 l 433 1036 l 197 1036 l 367 833 l 501 833 m 817 381 q 733 655 817 551 q 482 768 650 758 l 482 599 q 551 570 528 590 q 585 520 575 550 q 597 453 596 490 q 599 375 599 417 q 596 301 599 339 q 582 232 593 264 q 547 178 571 200 q 482 151 524 157 l 482 -21 q 517 -17 500 -18 q 550 -12 533 -15 q 672 38 621 1 q 755 128 722 75 q 802 246 788 181 q 817 381 817 311 m 378 -22 l 378 150 q 306 182 331 161 q 272 232 282 203 q 260 298 261 261 q 260 379 260 335 q 263 453 260 417 q 276 521 265 490 q 312 572 288 551 q 378 597 336 592 l 378 768 q 231 734 294 765 q 126 649 168 703 q 64 525 85 596 q 43 372 43 454 q 56 238 43 303 q 100 121 69 174 q 179 32 131 68 q 299 -17 228 -4 q 338 -20 318 -19 q 378 -22 358 -21 z "},"":{"ha":892,"x_min":43,"x_max":817,"o":"m 611 1038 l 386 1038 l 322 835 l 458 835 l 611 1038 m 817 381 q 733 655 817 551 q 482 768 650 758 l 482 599 q 551 570 528 590 q 585 520 575 550 q 597 453 596 490 q 599 375 599 417 q 596 301 599 339 q 582 232 593 264 q 547 178 571 200 q 482 151 524 157 l 482 -21 q 517 -17 500 -18 q 550 -12 533 -15 q 672 38 621 1 q 755 128 722 75 q 802 246 788 181 q 817 381 817 311 m 378 -22 l 378 150 q 306 182 331 161 q 272 232 282 203 q 260 298 261 261 q 260 379 260 335 q 263 453 260 417 q 276 521 265 490 q 312 572 288 551 q 378 597 336 592 l 378 768 q 231 734 294 765 q 126 649 168 703 q 64 525 85 596 q 43 372 43 454 q 56 238 43 303 q 100 121 69 174 q 179 32 131 68 q 299 -17 228 -4 q 338 -20 318 -19 q 378 -22 358 -21 z "},"":{"ha":892,"x_min":43,"x_max":817,"o":"m 636 826 l 513 1035 l 317 1035 l 185 826 l 344 826 l 413 942 l 481 826 l 636 826 m 817 381 q 733 655 817 551 q 482 768 650 758 l 482 599 q 551 570 528 590 q 585 520 575 550 q 597 453 596 490 q 599 375 599 417 q 596 301 599 339 q 582 232 593 264 q 547 178 571 200 q 482 151 524 157 l 482 -21 q 517 -17 500 -18 q 550 -12 533 -15 q 672 38 621 1 q 755 128 722 75 q 802 246 788 181 q 817 381 817 311 m 378 -22 l 378 150 q 306 182 331 161 q 272 232 282 203 q 260 298 261 261 q 260 379 260 335 q 263 453 260 417 q 276 521 265 490 q 312 572 288 551 q 378 597 336 592 l 378 768 q 231 734 294 765 q 126 649 168 703 q 64 525 85 596 q 43 372 43 454 q 56 238 43 303 q 100 121 69 174 q 179 32 131 68 q 299 -17 228 -4 q 338 -20 318 -19 q 378 -22 358 -21 z "},"":{"ha":892,"x_min":43,"x_max":817,"o":"m 625 978 q 624 1005 625 992 q 624 1032 624 1018 l 532 1032 q 523 994 533 1013 q 490 975 513 975 q 454 985 474 975 q 413 1006 435 994 q 367 1026 390 1017 q 322 1035 344 1035 q 267 1021 289 1035 q 233 985 246 1007 q 215 936 219 964 q 210 881 210 908 q 210 855 210 868 q 213 828 211 842 l 310 829 q 315 870 308 851 q 349 889 321 889 q 391 879 369 889 q 435 858 413 869 q 482 838 458 847 q 531 828 506 828 q 583 841 564 828 q 610 876 601 854 q 622 926 619 899 q 625 978 625 953 m 817 381 q 733 655 817 551 q 482 768 650 758 l 482 599 q 551 570 528 590 q 585 520 575 550 q 597 453 596 490 q 599 375 599 417 q 596 301 599 339 q 582 232 593 264 q 547 178 571 200 q 482 151 524 157 l 482 -21 q 517 -17 500 -18 q 550 -12 533 -15 q 672 38 621 1 q 755 128 722 75 q 802 246 788 181 q 817 381 817 311 m 378 -22 l 378 150 q 306 182 331 161 q 272 232 282 203 q 260 298 261 261 q 260 379 260 335 q 263 453 260 417 q 276 521 265 490 q 312 572 288 551 q 378 597 336 592 l 378 768 q 231 734 294 765 q 126 649 168 703 q 64 525 85 596 q 43 372 43 454 q 56 238 43 303 q 100 121 69 174 q 179 32 131 68 q 299 -17 228 -4 q 338 -20 318 -19 q 378 -22 358 -21 z "},"":{"ha":892,"x_min":43,"x_max":817,"o":"m 676 806 l 676 975 l 486 975 l 486 806 l 676 806 m 376 804 l 376 974 l 183 974 l 185 804 l 376 804 m 817 381 q 733 655 817 551 q 482 768 650 758 l 482 599 q 551 570 528 590 q 585 520 575 550 q 597 453 596 490 q 599 375 599 417 q 596 301 599 339 q 582 232 593 264 q 547 178 571 200 q 482 151 524 157 l 482 -21 q 517 -17 500 -18 q 550 -12 533 -15 q 672 38 621 1 q 755 128 722 75 q 802 246 788 181 q 817 381 817 311 m 378 -22 l 378 150 q 306 182 331 161 q 272 232 282 203 q 260 298 261 261 q 260 379 260 335 q 263 453 260 417 q 276 521 265 490 q 312 572 288 551 q 378 597 336 592 l 378 768 q 231 734 294 765 q 126 649 168 703 q 64 525 85 596 q 43 372 43 454 q 56 238 43 303 q 100 121 69 174 q 179 32 131 68 q 299 -17 228 -4 q 338 -20 318 -19 q 378 -22 358 -21 z "},"":{"ha":1060,"x_min":58,"x_max":971,"o":"m 971 429 q 919 640 971 543 q 779 800 867 738 l 779 806 l 771 806 q 652 864 717 843 q 517 885 588 885 q 380 864 444 885 q 260 806 315 843 l 256 806 l 256 803 q 113 643 167 740 q 60 429 58 546 q 96 252 60 335 q 194 108 132 169 q 339 10 256 46 q 517 -26 422 -26 q 692 10 610 -26 q 837 108 775 46 q 935 252 899 169 q 971 429 971 335 m 919 429 q 888 273 919 346 q 801 145 856 200 q 673 58 746 90 q 517 26 600 26 q 360 58 433 26 q 231 144 286 90 q 144 272 176 199 q 113 429 113 346 q 151 602 113 522 q 256 738 189 682 l 256 164 l 401 164 l 401 806 l 371 806 q 440 825 404 818 q 515 832 476 832 l 515 833 q 661 806 590 833 l 633 806 l 633 561 l 471 561 l 471 440 l 633 440 l 633 164 l 779 164 l 779 733 q 882 599 844 678 q 919 429 919 521 z "},"":{"ha":896,"x_min":44,"x_max":821,"o":"m 821 381 q 797 523 821 460 q 729 649 774 586 l 813 747 l 749 804 l 664 707 q 615 734 636 722 q 574 753 594 746 q 532 765 554 761 q 478 772 510 769 l 478 603 q 498 599 490 601 q 512 592 506 596 q 525 582 518 588 q 543 571 532 576 l 269 261 q 253 381 253 319 q 257 461 253 425 q 275 526 261 497 q 316 574 289 554 q 389 606 343 594 l 389 771 q 128 651 213 756 q 44 371 44 547 q 49 295 44 329 q 65 231 54 261 q 93 172 76 201 q 135 110 110 143 l 50 11 l 114 -47 l 196 50 q 244 22 222 35 q 288 1 267 10 q 332 -14 308 -8 q 388 -21 356 -19 l 388 150 q 349 164 361 156 q 318 190 338 172 l 590 497 q 609 439 604 469 q 614 378 614 408 q 609 299 614 336 q 590 231 604 261 q 548 181 575 201 q 478 151 521 160 l 478 -19 q 735 101 650 -6 q 821 381 821 208 z "},"":{"ha":846,"x_min":69,"x_max":746,"o":"m 479 833 l 413 1036 l 176 1036 l 344 833 l 479 833 m 746 0 l 746 747 l 533 747 l 533 0 l 746 0 m 429 13 l 428 169 l 428 172 l 428 169 q 422 162 428 167 q 394 157 415 157 q 341 171 363 157 q 307 207 319 185 q 289 256 294 229 q 283 311 283 283 l 282 747 l 69 747 l 69 306 q 79 190 69 247 q 114 86 89 132 q 183 11 139 40 q 299 -18 228 -18 q 366 -10 335 -18 q 413 4 397 -3 q 429 13 428 11 z "},"":{"ha":847,"x_min":69,"x_max":746,"o":"m 590 1038 l 365 1038 l 303 835 l 438 835 l 590 1038 m 746 0 l 746 747 l 533 747 l 533 0 l 746 0 m 429 13 l 428 169 q 428 172 429 171 q 428 172 428 172 l 428 169 q 422 162 428 167 q 394 157 415 157 q 342 171 363 157 q 308 207 321 185 q 289 256 294 229 q 283 311 283 283 l 282 747 l 69 747 l 69 306 q 79 190 69 247 q 114 86 89 132 q 183 11 139 40 q 299 -18 228 -18 q 366 -10 335 -18 q 413 4 397 -3 q 429 13 428 11 z "},"":{"ha":846,"x_min":69,"x_max":746,"o":"m 614 826 l 492 1035 l 296 1035 l 164 826 l 322 826 l 392 942 l 460 826 l 614 826 m 746 0 l 746 747 l 533 747 l 533 0 l 746 0 m 429 13 l 428 169 l 428 172 l 428 169 q 421 162 426 167 q 394 157 415 157 q 341 171 363 157 q 307 207 319 185 q 289 256 294 229 q 283 311 283 283 l 282 747 l 69 747 l 69 306 q 79 190 69 247 q 114 86 89 132 q 183 11 139 40 q 299 -18 228 -18 q 366 -10 335 -18 q 413 4 397 -3 q 429 13 428 11 z "},"":{"ha":846,"x_min":69,"x_max":746,"o":"m 657 804 l 657 972 l 468 972 l 468 801 l 657 804 m 356 801 l 356 972 l 165 972 l 165 801 l 356 801 m 746 0 l 746 747 l 533 747 l 533 0 l 746 0 m 429 13 l 428 169 l 428 172 l 428 169 q 421 162 426 167 q 394 157 415 157 q 341 171 363 157 q 307 207 319 185 q 289 256 294 229 q 283 311 283 283 l 282 747 l 69 747 l 69 306 q 79 190 69 247 q 114 86 89 132 q 183 11 139 40 q 299 -18 228 -18 q 366 -10 335 -18 q 413 4 397 -3 q 429 13 428 11 z "},"":{"ha":1060,"x_min":60,"x_max":971,"o":"m 971 429 q 935 606 971 522 q 838 751 899 689 q 693 849 776 813 q 517 885 610 885 q 339 849 422 885 q 193 751 256 813 q 95 606 131 689 q 60 429 60 522 q 96 252 60 335 q 194 108 132 169 q 339 10 256 46 q 517 -26 422 -26 q 692 10 610 -26 q 837 108 775 46 q 935 252 899 169 q 971 429 971 335 m 919 429 q 888 273 919 346 q 801 145 856 200 q 673 58 746 90 q 517 26 600 26 q 360 58 433 26 q 231 144 286 90 q 144 272 176 199 q 113 429 113 346 q 144 585 113 513 q 230 713 175 658 q 358 800 285 768 q 515 832 432 832 l 515 833 q 672 801 599 833 q 800 715 744 769 q 888 586 856 660 q 919 429 919 513 m 749 443 q 741 547 749 496 q 712 639 733 597 q 652 710 690 681 q 554 753 614 740 l 551 753 q 554 754 554 754 q 551 754 556 754 l 551 753 l 551 647 q 609 608 599 638 q 619 531 619 578 q 590 453 619 485 q 514 422 561 422 q 443 453 469 422 q 417 528 417 483 q 418 572 417 554 q 426 604 419 590 q 445 628 432 618 q 482 647 458 638 l 482 754 q 394 735 429 753 q 338 685 358 717 q 308 610 317 653 q 299 518 299 568 q 313 437 299 474 q 351 373 326 400 q 412 331 376 346 q 492 315 447 315 q 629 379 575 315 q 625 330 626 357 q 616 278 624 303 q 594 235 608 253 q 551 217 579 218 l 551 113 q 656 149 617 118 q 715 227 694 181 q 742 330 736 274 q 749 443 749 386 m 482 111 l 482 214 q 439 232 447 217 q 428 283 431 247 l 308 275 q 330 201 318 231 q 360 151 342 171 q 407 123 378 132 q 482 111 436 114 z "},"":{"ha":760,"x_min":6,"x_max":725,"o":"m 596 832 l 596 1003 l 408 1003 l 408 832 l 596 832 m 294 832 l 294 1003 l 106 1003 l 106 832 l 294 832 m 725 744 l 499 744 l 417 410 l 507 88 l 725 744 m 458 -44 l 239 744 l 6 744 q 38 657 15 715 q 88 527 61 599 q 144 377 115 456 q 197 230 174 299 q 237 110 221 161 q 253 39 253 58 q 222 -41 253 -22 q 136 -60 190 -60 l 76 -60 l 76 -228 q 126 -228 101 -228 q 176 -229 151 -229 q 276 -222 231 -229 q 358 -194 322 -214 q 420 -137 394 -174 q 458 -44 446 -101 z "},"":{"ha":1060,"x_min":60,"x_max":971,"o":"m 971 429 q 935 606 971 522 q 838 751 899 689 q 693 849 776 813 q 517 885 610 885 q 339 849 422 885 q 193 751 256 813 q 95 606 131 689 q 60 429 60 522 q 96 252 60 335 q 194 108 132 169 q 339 10 256 46 q 517 -26 422 -26 q 692 10 610 -26 q 837 108 775 46 q 935 252 899 169 q 971 429 971 335 m 919 429 q 908 334 919 381 q 875 247 896 288 l 875 449 q 869 531 875 492 q 847 599 864 569 q 799 645 831 628 q 717 663 768 663 q 631 640 668 663 q 568 579 594 618 q 524 641 549 619 q 456 663 500 663 q 416 653 436 663 q 385 635 396 643 q 374 625 375 626 l 374 518 q 395 531 383 525 q 418 536 407 536 q 447 506 443 536 q 450 431 450 475 l 450 158 l 592 158 l 592 439 q 594 474 592 457 q 606 505 597 492 q 628 526 614 518 q 664 535 642 535 q 719 507 706 535 q 733 444 733 479 l 736 158 l 813 158 q 681 62 757 97 q 517 26 604 26 q 351 62 428 26 q 218 158 274 97 l 304 158 l 304 649 l 178 649 q 320 782 232 732 q 515 832 408 832 l 515 833 q 672 801 599 833 q 800 715 744 769 q 888 586 856 660 q 919 429 919 513 m 164 233 q 113 429 113 324 q 164 626 113 536 l 164 233 z "},"":{"ha":1060,"x_min":60,"x_max":971,"o":"m 971 429 q 935 606 971 522 q 838 751 899 689 q 693 849 776 813 q 517 885 610 885 q 339 849 422 885 q 193 751 256 813 q 95 606 131 689 q 60 429 60 522 q 96 252 60 335 q 194 108 132 169 q 339 10 256 46 q 517 -26 422 -26 q 692 10 610 -26 q 837 108 775 46 q 935 252 899 169 q 971 429 971 335 m 919 429 q 888 273 919 346 q 801 145 856 200 q 673 58 746 90 q 517 26 600 26 q 347 64 425 26 q 211 165 268 101 l 369 165 l 489 575 q 501 621 496 599 q 511 665 507 643 q 538 542 518 601 q 578 419 558 482 l 506 418 l 471 303 l 614 303 l 657 165 l 818 165 l 592 807 l 428 807 l 208 169 q 138 288 164 222 q 113 429 113 354 q 144 585 113 513 q 230 713 175 658 q 358 800 285 768 q 515 832 432 832 l 515 833 q 672 801 599 833 q 800 715 744 769 q 888 586 856 660 q 919 429 919 513 z "},"":{"ha":1060,"x_min":60,"x_max":971,"o":"m 971 429 q 935 606 971 522 q 838 751 899 689 q 693 849 776 813 q 517 885 610 885 q 339 849 422 885 q 193 751 256 813 q 95 606 131 689 q 60 429 60 522 q 96 252 60 335 q 194 108 132 169 q 339 10 256 46 q 517 -26 422 -26 q 692 10 610 -26 q 837 108 775 46 q 935 252 899 169 q 971 429 971 335 m 919 429 q 888 273 919 346 q 801 145 856 200 q 673 58 746 90 q 517 26 600 26 q 360 58 433 26 q 231 144 286 90 q 144 272 176 199 q 113 429 113 346 q 164 627 113 538 q 300 769 215 717 l 300 165 l 443 165 l 443 807 l 375 807 q 515 832 442 832 l 515 833 q 672 801 599 833 q 800 715 744 769 q 888 586 856 660 q 919 429 919 513 m 843 489 q 829 597 843 546 q 788 688 815 647 q 717 758 760 729 q 615 799 674 786 q 597 803 603 801 q 588 806 592 806 q 578 808 583 807 q 560 808 572 808 l 514 808 l 513 808 l 513 688 q 523 687 521 688 q 525 686 525 686 q 527 685 525 686 q 539 685 529 685 q 613 666 583 682 q 658 624 642 650 q 682 564 675 599 q 689 489 689 529 q 688 401 689 439 q 676 336 688 363 q 636 297 664 310 q 554 283 608 283 q 533 284 543 283 q 513 285 524 285 l 513 165 q 621 170 575 165 q 701 192 667 175 q 764 247 736 210 q 818 349 792 283 q 838 417 832 382 q 843 489 843 453 z "},"":{"ha":1060,"x_min":60,"x_max":971,"o":"m 971 429 q 935 606 971 522 q 838 751 899 689 q 693 849 776 813 q 517 885 610 885 q 339 849 422 885 q 193 751 256 813 q 95 606 131 689 q 60 429 60 522 q 96 252 60 335 q 194 108 132 169 q 339 10 256 46 q 517 -26 422 -26 q 692 10 610 -26 q 837 108 775 46 q 935 252 899 169 q 971 429 971 335 m 919 429 q 888 273 919 346 q 801 145 856 200 q 673 58 746 90 q 517 26 600 26 q 360 58 433 26 q 231 144 286 90 q 144 272 176 199 q 113 429 113 346 q 144 585 113 513 q 230 713 175 658 q 358 800 285 768 q 515 832 432 832 l 515 833 q 672 801 599 833 q 800 715 744 769 q 888 586 856 660 q 919 429 919 513 m 808 606 q 785 674 803 642 q 742 732 768 706 q 683 778 715 758 q 615 808 650 797 q 597 815 603 813 q 587 818 592 817 q 576 821 582 819 q 558 824 571 822 l 558 700 q 632 672 608 699 q 667 597 656 646 l 808 606 m 811 522 l 568 522 l 568 406 l 682 406 q 665 352 674 375 q 644 313 657 329 q 610 287 631 297 q 558 272 590 276 l 558 153 q 637 180 606 154 q 697 242 668 206 l 704 165 l 806 165 l 811 522 m 490 150 l 490 272 q 419 299 444 281 q 380 343 393 317 q 363 405 367 369 q 360 483 360 440 q 363 560 360 524 q 381 625 367 596 q 420 674 394 654 q 490 700 446 693 l 490 821 q 476 822 486 822 q 455 821 465 822 q 433 817 444 819 q 325 772 368 803 q 256 696 282 740 q 219 596 231 651 q 208 478 208 540 q 221 356 208 415 q 263 250 233 296 q 339 176 292 204 q 456 147 386 147 q 474 149 465 147 q 490 150 482 150 z "},"":{"ha":1060,"x_min":60,"x_max":971,"o":"m 971 429 q 935 606 971 522 q 838 751 899 689 q 693 849 776 813 q 517 885 610 885 q 339 849 422 885 q 193 751 256 813 q 95 606 131 689 q 60 429 60 522 q 96 252 60 335 q 194 108 132 169 q 339 10 256 46 q 517 -26 422 -26 q 692 10 610 -26 q 837 108 775 46 q 935 252 899 169 q 971 429 971 335 m 919 429 q 888 273 919 346 q 801 145 856 200 q 673 58 746 90 q 517 26 600 26 q 360 58 433 26 q 231 144 286 90 q 144 272 176 199 q 113 429 113 346 q 160 621 113 533 q 290 764 208 708 l 290 165 l 433 165 l 433 808 l 378 808 q 515 832 444 832 l 515 833 q 654 808 589 833 l 513 808 l 513 688 l 761 688 l 761 749 q 876 610 833 693 q 919 429 919 526 m 721 435 l 721 549 l 513 549 l 513 435 l 721 435 z "},"":{"ha":440,"x_min":0,"x_max":0,"o":""},"":{"ha":1060,"x_min":60,"x_max":971,"o":"m 971 429 q 935 606 971 522 q 838 751 899 689 q 693 849 776 813 q 517 885 610 885 q 339 849 422 885 q 193 751 256 813 q 95 606 131 689 q 60 429 60 522 q 96 252 60 335 q 194 108 132 169 q 339 10 256 46 q 517 -26 422 -26 q 692 10 610 -26 q 837 108 775 46 q 935 252 899 169 q 971 429 971 335 m 919 429 q 888 273 919 346 q 801 145 856 200 q 673 58 746 90 q 517 26 600 26 q 360 58 433 26 q 231 144 286 90 q 144 272 176 199 q 113 429 113 346 q 144 585 113 513 q 230 713 175 658 q 358 800 285 768 q 515 832 432 832 l 515 833 q 672 801 599 833 q 800 715 744 769 q 888 586 856 660 q 919 429 919 513 m 574 165 l 574 807 l 431 807 l 431 165 l 574 165 z "},"":{"ha":31,"x_min":-229,"x_max":229,"o":"m 229 1232 l 69 1232 l 0 1138 l -72 1231 l -229 1231 l -112 1058 l 108 1058 l 229 1232 z "},"":{"ha":261,"x_min":-135,"x_max":367,"o":"m 367 1058 l 367 1232 l 189 1232 l 189 1058 l 367 1058 m 43 1058 l 43 1231 l -135 1231 l -135 1058 l 43 1058 z "},"":{"ha":31,"x_min":-215,"x_max":215,"o":"m 215 1229 l 107 1228 q 106 1214 110 1219 q 97 1204 103 1208 q 82 1198 90 1200 q 68 1196 74 1196 q 26 1201 47 1196 q -15 1210 6 1206 q -55 1220 -35 1215 q -97 1225 -75 1225 q -148 1213 -126 1225 q -185 1179 -169 1200 q -208 1132 -200 1158 q -215 1079 -215 1106 l -215 1078 l -215 1061 l -108 1061 q -97 1081 -106 1072 q -76 1089 -89 1089 q 7 1074 -33 1089 q 90 1058 47 1058 q 149 1074 125 1058 q 187 1114 172 1089 q 208 1169 201 1139 q 214 1229 214 1200 l 215 1229 z "},"":{"ha":31,"x_min":-229,"x_max":229,"o":"m 229 1057 l 113 1229 l -108 1229 l -229 1056 l -68 1056 l 0 1149 l 72 1057 l 229 1057 z "},"":{"ha":196,"x_min":-47,"x_max":213,"o":"m 213 1232 l -14 1232 l -47 1061 l 83 1060 l 213 1232 z "},"":{"ha":31,"x_min":-128,"x_max":128,"o":"m 128 1058 l 99 1231 l -128 1231 l -1 1057 l 128 1058 z "},"":{"ha":635,"x_min":93,"x_max":513,"o":"m 276 644 l 276 828 q 208 797 244 807 q 135 788 172 788 l 113 788 q 103 788 108 788 q 93 789 99 788 l 93 644 l 276 644 m 513 0 l 513 950 l 340 950 q 331 909 338 929 q 314 869 325 889 l 314 868 l 314 0 l 513 0 z "}}}
